<svg xmlns="http://www.w3.org/2000/svg" xmlns:xlink="http://www.w3.org/1999/xlink" width="1024" zoomAndPan="magnify" viewBox="0 0 768 767.999994" height="1024" preserveAspectRatio="xMidYMid meet" version="1.0"><defs><g/><clipPath id="334287ee6d"><rect x="0" width="526" y="0" height="197"/></clipPath><clipPath id="fabaf4cab4"><rect x="0" width="281" y="0" height="87"/></clipPath><clipPath id="e17726a760"><rect x="0" width="449" y="0" height="85"/></clipPath></defs><path fill="#000000" d="M 105.085938 180.003906 C 98.414062 182.410156 94.171875 186.085938 90.871094 192.339844 L 88.875 196.125 L 88.675781 290.246094 C 88.453125 396.632812 88.046875 389.082031 94.351562 396.09375 C 96.199219 398.148438 99.339844 400.65625 101.328125 401.664062 C 103.316406 402.671875 113.8125 406.503906 124.660156 410.183594 C 140.992188 415.722656 170.324219 425.957031 187.125 431.980469 C 189.1875 432.722656 203.53125 438.046875 219 443.820312 C 283.03125 467.710938 309.667969 474.535156 354.75 478.609375 C 367.953125 479.804688 405.597656 479.789062 418.5 478.585938 C 462.210938 474.515625 489.867188 467.488281 547.125 445.902344 C 565.683594 438.90625 567.800781 438.125 604.125 424.859375 C 626.304688 416.757812 634.847656 413.667969 652.875 407.230469 C 669.421875 401.320312 675.703125 396.84375 678.699219 388.839844 C 680.238281 384.730469 680.25 383.875 680.25 291.480469 C 680.25 207.570312 680.128906 197.910156 679.035156 194.707031 C 677.382812 189.847656 670.890625 182.949219 665.820312 180.660156 L 661.875 178.875 L 385.5 178.710938 C 113.683594 178.550781 109.058594 178.574219 105.085938 180.003906 M 111.324219 191.203125 C 107.496094 192.121094 104.488281 194.324219 102.632812 197.558594 L 100.875 200.625 L 100.875 291.75 C 100.875 379.917969 100.921875 382.960938 102.304688 385.5 C 104.628906 389.78125 106.117188 390.613281 119.625 395.21875 C 124.574219 396.90625 130.3125 398.925781 132.375 399.707031 C 134.4375 400.492188 141.863281 403.078125 148.875 405.457031 C 155.886719 407.839844 162.46875 410.226562 163.5 410.761719 C 164.53125 411.300781 165.78125 411.742188 166.28125 411.746094 C 167.078125 411.75 196.863281 422.355469 201.75 424.375 C 202.78125 424.800781 207.507812 426.566406 212.25 428.292969 C 216.992188 430.023438 221.886719 431.871094 223.125 432.398438 C 226.164062 433.699219 245.359375 440.617188 254.625 443.753906 C 258.75 445.148438 262.800781 446.597656 263.625 446.96875 C 265.398438 447.777344 290.53125 455.199219 293.25 455.722656 C 294.28125 455.917969 297.824219 456.769531 301.125 457.613281 C 304.425781 458.457031 307.96875 459.289062 309 459.464844 C 310.03125 459.636719 311.886719 460 313.125 460.265625 C 314.363281 460.535156 315.882812 460.820312 316.5 460.902344 C 317.117188 460.980469 322.179688 461.746094 327.75 462.601562 C 333.320312 463.457031 341.925781 464.539062 346.875 465.011719 C 351.824219 465.480469 358.40625 466.148438 361.5 466.496094 C 366.726562 467.085938 411.125 466.847656 417 466.199219 C 418.445312 466.039062 421.648438 465.699219 424.125 465.4375 C 426.601562 465.179688 429.636719 464.816406 430.875 464.632812 C 432.113281 464.445312 434.980469 464.105469 437.25 463.871094 C 439.519531 463.636719 441.882812 463.34375 442.5 463.21875 C 444.691406 462.773438 448.90625 462.023438 451.125 461.679688 C 459.527344 460.375 477.472656 456.160156 487.707031 453.089844 C 496.5625 450.429688 495.957031 450.613281 496.875 450.324219 C 510.007812 446.210938 529.226562 439.667969 534.984375 437.347656 C 536.148438 436.882812 537.417969 436.5 537.808594 436.5 C 538.199219 436.5 539.105469 436.160156 539.824219 435.746094 C 541.105469 435 559.71875 427.984375 567.75 425.21875 C 570.019531 424.4375 575.082031 422.578125 579 421.085938 C 582.917969 419.59375 586.460938 418.285156 586.875 418.175781 C 587.289062 418.070312 588.46875 417.648438 589.5 417.238281 C 590.53125 416.832031 594.917969 415.222656 599.25 413.65625 C 603.582031 412.09375 607.800781 410.523438 608.625 410.167969 C 609.449219 409.8125 615.863281 407.460938 622.875 404.9375 C 629.886719 402.417969 638.492188 399.253906 642 397.902344 C 646.292969 396.257812 650.589844 394.628906 654.898438 393.015625 C 662.242188 390.273438 666.285156 386.921875 667.496094 382.5625 C 667.972656 380.847656 668.242188 347.550781 668.246094 290.597656 L 668.25 201.316406 L 666.5625 197.972656 C 665.378906 195.625 663.867188 194.0625 661.5 192.75 L 658.125 190.875 L 385.875 190.761719 C 236.136719 190.699219 112.589844 190.898438 111.324219 191.203125 " fill-opacity="1" fill-rule="evenodd"/><g transform="matrix(1, 0, 0, 1, 121, 169)"><g clip-path="url(#334287ee6d)"><g fill="#000000" fill-opacity="1"><g transform="translate(1.090917, 162.975768)"><g><path d="M 10.609375 0 C 10.066406 0 9.601562 -0.1875 9.21875 -0.5625 C 8.84375 -0.945312 8.65625 -1.410156 8.65625 -1.953125 L 8.65625 -112.3125 C 8.65625 -112.851562 8.84375 -113.3125 9.21875 -113.6875 C 9.601562 -114.070312 10.066406 -114.265625 10.609375 -114.265625 L 29.703125 -114.265625 C 30.253906 -114.265625 30.71875 -114.070312 31.09375 -113.6875 C 31.476562 -113.3125 31.671875 -112.851562 31.671875 -112.3125 L 31.671875 -68.890625 C 31.671875 -68.554688 31.804688 -68.332031 32.078125 -68.21875 C 32.347656 -68.113281 32.535156 -68.226562 32.640625 -68.5625 L 61.859375 -112.953125 C 62.410156 -113.828125 63.175781 -114.265625 64.15625 -114.265625 L 85.203125 -114.265625 C 85.960938 -114.265625 86.476562 -114.046875 86.75 -113.609375 C 87.03125 -113.171875 86.953125 -112.628906 86.515625 -111.984375 L 56.3125 -65.125 C 56.207031 -64.800781 56.207031 -64.421875 56.3125 -63.984375 L 88.3125 -2.28125 C 88.53125 -1.84375 88.640625 -1.519531 88.640625 -1.3125 C 88.640625 -0.4375 88.039062 0 86.84375 0 L 65.953125 0 C 64.972656 0 64.207031 -0.488281 63.65625 -1.46875 L 40.484375 -46.203125 C 40.367188 -46.523438 40.203125 -46.6875 39.984375 -46.6875 C 39.773438 -46.6875 39.5625 -46.523438 39.34375 -46.203125 L 32 -35.578125 C 31.78125 -35.148438 31.671875 -34.828125 31.671875 -34.609375 L 31.671875 -1.953125 C 31.671875 -1.410156 31.476562 -0.945312 31.09375 -0.5625 C 30.71875 -0.1875 30.253906 0 29.703125 0 Z M 10.609375 0 "/></g></g></g><g fill="#000000" fill-opacity="1"><g transform="translate(92.171372, 162.975768)"><g><path d="M 78.1875 -96.46875 C 78.1875 -95.925781 77.992188 -95.460938 77.609375 -95.078125 C 77.234375 -94.703125 76.773438 -94.515625 76.234375 -94.515625 L 32.484375 -94.515625 C 31.941406 -94.515625 31.671875 -94.242188 31.671875 -93.703125 L 31.671875 -68.234375 C 31.671875 -67.691406 31.941406 -67.421875 32.484375 -67.421875 L 59.75 -67.421875 C 60.289062 -67.421875 60.75 -67.226562 61.125 -66.84375 C 61.507812 -66.457031 61.703125 -65.992188 61.703125 -65.453125 L 61.703125 -49.625 C 61.703125 -49.082031 61.507812 -48.617188 61.125 -48.234375 C 60.75 -47.859375 60.289062 -47.671875 59.75 -47.671875 L 32.484375 -47.671875 C 31.941406 -47.671875 31.671875 -47.394531 31.671875 -46.84375 L 31.671875 -20.5625 C 31.671875 -20.019531 31.941406 -19.75 32.484375 -19.75 L 76.234375 -19.75 C 76.773438 -19.75 77.234375 -19.554688 77.609375 -19.171875 C 77.992188 -18.796875 78.1875 -18.335938 78.1875 -17.796875 L 78.1875 -1.953125 C 78.1875 -1.410156 77.992188 -0.945312 77.609375 -0.5625 C 77.234375 -0.1875 76.773438 0 76.234375 0 L 10.609375 0 C 10.066406 0 9.601562 -0.1875 9.21875 -0.5625 C 8.84375 -0.945312 8.65625 -1.410156 8.65625 -1.953125 L 8.65625 -112.3125 C 8.65625 -112.851562 8.84375 -113.3125 9.21875 -113.6875 C 9.601562 -114.070312 10.066406 -114.265625 10.609375 -114.265625 L 76.234375 -114.265625 C 76.773438 -114.265625 77.234375 -114.070312 77.609375 -113.6875 C 77.992188 -113.3125 78.1875 -112.851562 78.1875 -112.3125 Z M 78.1875 -96.46875 "/></g></g></g><g fill="#000000" fill-opacity="1"><g transform="translate(175.580176, 162.975768)"><g><path d="M 42.9375 1.3125 C 35.425781 1.3125 28.835938 -0.0195312 23.171875 -2.6875 C 17.515625 -5.351562 13.132812 -9.109375 10.03125 -13.953125 C 6.9375 -18.796875 5.390625 -24.375 5.390625 -30.6875 L 5.390625 -34.9375 C 5.390625 -35.476562 5.578125 -35.9375 5.953125 -36.3125 C 6.335938 -36.695312 6.800781 -36.890625 7.34375 -36.890625 L 26.125 -36.890625 C 26.664062 -36.890625 27.125 -36.695312 27.5 -36.3125 C 27.882812 -35.9375 28.078125 -35.476562 28.078125 -34.9375 L 28.078125 -31.828125 C 28.078125 -28.023438 29.488281 -24.84375 32.3125 -22.28125 C 35.144531 -19.726562 38.957031 -18.453125 43.75 -18.453125 C 47.988281 -18.453125 51.222656 -19.535156 53.453125 -21.703125 C 55.691406 -23.878906 56.8125 -26.65625 56.8125 -30.03125 C 56.8125 -32.539062 56.101562 -34.691406 54.6875 -36.484375 C 53.269531 -38.273438 51.28125 -39.957031 48.71875 -41.53125 C 46.164062 -43.113281 42.222656 -45.265625 36.890625 -47.984375 C 30.359375 -51.253906 25.023438 -54.300781 20.890625 -57.125 C 16.753906 -59.957031 13.21875 -63.601562 10.28125 -68.0625 C 7.34375 -72.53125 5.875 -77.921875 5.875 -84.234375 C 5.875 -90.546875 7.367188 -96.066406 10.359375 -100.796875 C 13.359375 -105.523438 17.578125 -109.164062 23.015625 -111.71875 C 28.453125 -114.28125 34.65625 -115.5625 41.625 -115.5625 C 48.914062 -115.5625 55.390625 -114.175781 61.046875 -111.40625 C 66.703125 -108.632812 71.109375 -104.742188 74.265625 -99.734375 C 77.421875 -94.734375 79 -88.96875 79 -82.4375 L 79 -79.171875 C 79 -78.628906 78.804688 -78.164062 78.421875 -77.78125 C 78.046875 -77.394531 77.585938 -77.203125 77.046875 -77.203125 L 58.28125 -77.203125 C 57.726562 -77.203125 57.257812 -77.394531 56.875 -77.78125 C 56.5 -78.164062 56.3125 -78.628906 56.3125 -79.171875 L 56.3125 -82.109375 C 56.3125 -86.023438 54.953125 -89.285156 52.234375 -91.890625 C 49.515625 -94.503906 45.816406 -95.8125 41.140625 -95.8125 C 37.222656 -95.8125 34.144531 -94.804688 31.90625 -92.796875 C 29.675781 -90.785156 28.5625 -87.984375 28.5625 -84.390625 C 28.5625 -81.890625 29.210938 -79.710938 30.515625 -77.859375 C 31.828125 -76.015625 33.84375 -74.25 36.5625 -72.5625 C 39.28125 -70.875 43.414062 -68.671875 48.96875 -65.953125 L 52.390625 -63.984375 C 58.703125 -60.503906 63.625 -57.484375 67.15625 -54.921875 C 70.695312 -52.367188 73.664062 -49.132812 76.0625 -45.21875 C 78.457031 -41.300781 79.65625 -36.566406 79.65625 -31.015625 C 79.65625 -21.109375 76.304688 -13.242188 69.609375 -7.421875 C 62.921875 -1.597656 54.03125 1.3125 42.9375 1.3125 Z M 42.9375 1.3125 "/></g></g></g><g fill="#000000" fill-opacity="1"><g transform="translate(259.315391, 162.975768)"><g><path d="M 79.65625 -114.265625 C 80.195312 -114.265625 80.660156 -114.070312 81.046875 -113.6875 C 81.429688 -113.3125 81.625 -112.851562 81.625 -112.3125 L 81.625 -96.3125 C 81.625 -95.757812 81.429688 -95.289062 81.046875 -94.90625 C 80.660156 -94.53125 80.195312 -94.34375 79.65625 -94.34375 L 54.84375 -94.34375 C 54.300781 -94.34375 54.03125 -94.070312 54.03125 -93.53125 L 54.03125 -1.953125 C 54.03125 -1.410156 53.835938 -0.945312 53.453125 -0.5625 C 53.078125 -0.1875 52.617188 0 52.078125 0 L 32.96875 0 C 32.425781 0 31.960938 -0.1875 31.578125 -0.5625 C 31.203125 -0.945312 31.015625 -1.410156 31.015625 -1.953125 L 31.015625 -93.53125 C 31.015625 -94.070312 30.742188 -94.34375 30.203125 -94.34375 L 6.203125 -94.34375 C 5.660156 -94.34375 5.195312 -94.53125 4.8125 -94.90625 C 4.4375 -95.289062 4.25 -95.757812 4.25 -96.3125 L 4.25 -112.3125 C 4.25 -112.851562 4.4375 -113.3125 4.8125 -113.6875 C 5.195312 -114.070312 5.660156 -114.265625 6.203125 -114.265625 Z M 79.65625 -114.265625 "/></g></g></g><g fill="#000000" fill-opacity="1"><g transform="translate(345.172581, 162.975768)"><g><path d="M 78.1875 -96.46875 C 78.1875 -95.925781 77.992188 -95.460938 77.609375 -95.078125 C 77.234375 -94.703125 76.773438 -94.515625 76.234375 -94.515625 L 32.484375 -94.515625 C 31.941406 -94.515625 31.671875 -94.242188 31.671875 -93.703125 L 31.671875 -68.234375 C 31.671875 -67.691406 31.941406 -67.421875 32.484375 -67.421875 L 59.75 -67.421875 C 60.289062 -67.421875 60.75 -67.226562 61.125 -66.84375 C 61.507812 -66.457031 61.703125 -65.992188 61.703125 -65.453125 L 61.703125 -49.625 C 61.703125 -49.082031 61.507812 -48.617188 61.125 -48.234375 C 60.75 -47.859375 60.289062 -47.671875 59.75 -47.671875 L 32.484375 -47.671875 C 31.941406 -47.671875 31.671875 -47.394531 31.671875 -46.84375 L 31.671875 -20.5625 C 31.671875 -20.019531 31.941406 -19.75 32.484375 -19.75 L 76.234375 -19.75 C 76.773438 -19.75 77.234375 -19.554688 77.609375 -19.171875 C 77.992188 -18.796875 78.1875 -18.335938 78.1875 -17.796875 L 78.1875 -1.953125 C 78.1875 -1.410156 77.992188 -0.945312 77.609375 -0.5625 C 77.234375 -0.1875 76.773438 0 76.234375 0 L 10.609375 0 C 10.066406 0 9.601562 -0.1875 9.21875 -0.5625 C 8.84375 -0.945312 8.65625 -1.410156 8.65625 -1.953125 L 8.65625 -112.3125 C 8.65625 -112.851562 8.84375 -113.3125 9.21875 -113.6875 C 9.601562 -114.070312 10.066406 -114.265625 10.609375 -114.265625 L 76.234375 -114.265625 C 76.773438 -114.265625 77.234375 -114.070312 77.609375 -113.6875 C 77.992188 -113.3125 78.1875 -112.851562 78.1875 -112.3125 Z M 78.1875 -96.46875 "/></g></g></g><g fill="#000000" fill-opacity="1"><g transform="translate(428.581398, 162.975768)"><g><path d="M 64.796875 -112.3125 C 64.796875 -112.851562 64.988281 -113.3125 65.375 -113.6875 C 65.757812 -114.070312 66.222656 -114.265625 66.765625 -114.265625 L 85.703125 -114.265625 C 86.242188 -114.265625 86.703125 -114.070312 87.078125 -113.6875 C 87.460938 -113.3125 87.65625 -112.851562 87.65625 -112.3125 L 87.65625 -1.953125 C 87.65625 -1.410156 87.460938 -0.945312 87.078125 -0.5625 C 86.703125 -0.1875 86.242188 0 85.703125 0 L 65.78125 0 C 64.695312 0 63.9375 -0.488281 63.5 -1.46875 L 32.328125 -67.90625 C 32.109375 -68.226562 31.890625 -68.390625 31.671875 -68.390625 C 31.453125 -68.390625 31.34375 -68.175781 31.34375 -67.75 L 31.5 -1.953125 C 31.5 -1.410156 31.304688 -0.945312 30.921875 -0.5625 C 30.546875 -0.1875 30.085938 0 29.546875 0 L 10.609375 0 C 10.066406 0 9.601562 -0.1875 9.21875 -0.5625 C 8.84375 -0.945312 8.65625 -1.410156 8.65625 -1.953125 L 8.65625 -112.3125 C 8.65625 -112.851562 8.84375 -113.3125 9.21875 -113.6875 C 9.601562 -114.070312 10.066406 -114.265625 10.609375 -114.265625 L 30.359375 -114.265625 C 31.453125 -114.265625 32.210938 -113.773438 32.640625 -112.796875 L 63.828125 -46.359375 C 64.046875 -46.035156 64.257812 -45.875 64.46875 -45.875 C 64.6875 -45.875 64.796875 -46.085938 64.796875 -46.515625 Z M 64.796875 -112.3125 "/></g></g></g></g></g><g transform="matrix(1, 0, 0, 1, 251, 349)"><g clip-path="url(#fabaf4cab4)"><g fill="#000000" fill-opacity="1"><g transform="translate(1.081742, 64.307389)"><g><path d="M 31.765625 -42.96875 L 31.765625 -34.59375 L 14.265625 -34.59375 L 14.265625 -25.53125 L 27.359375 -25.53125 L 27.359375 -17.390625 L 14.265625 -17.390625 L 14.265625 0 L 3.796875 0 L 3.796875 -42.96875 Z M 31.765625 -42.96875 "/></g></g></g><g fill="#000000" fill-opacity="1"><g transform="translate(35.79139, 64.307389)"><g><path d="M 14.265625 -34.59375 L 14.265625 -25.890625 L 28.28125 -25.890625 L 28.28125 -17.8125 L 14.265625 -17.8125 L 14.265625 -8.390625 L 30.125 -8.390625 L 30.125 0 L 3.796875 0 L 3.796875 -42.96875 L 30.125 -42.96875 L 30.125 -34.59375 Z M 14.265625 -34.59375 "/></g></g></g><g fill="#000000" fill-opacity="1"><g transform="translate(70.133731, 64.307389)"><g><path d="M 14.265625 -34.59375 L 14.265625 -25.890625 L 28.28125 -25.890625 L 28.28125 -17.8125 L 14.265625 -17.8125 L 14.265625 -8.390625 L 30.125 -8.390625 L 30.125 0 L 3.796875 0 L 3.796875 -42.96875 L 30.125 -42.96875 L 30.125 -34.59375 Z M 14.265625 -34.59375 "/></g></g></g><g fill="#000000" fill-opacity="1"><g transform="translate(104.476072, 64.307389)"><g><path d="M 19.890625 -42.96875 C 24.421875 -42.96875 28.378906 -42.070312 31.765625 -40.28125 C 35.160156 -38.488281 37.785156 -35.96875 39.640625 -32.71875 C 41.492188 -29.476562 42.421875 -25.734375 42.421875 -21.484375 C 42.421875 -17.285156 41.492188 -13.550781 39.640625 -10.28125 C 37.785156 -7.019531 35.148438 -4.488281 31.734375 -2.6875 C 28.328125 -0.894531 24.378906 0 19.890625 0 L 3.796875 0 L 3.796875 -42.96875 Z M 19.21875 -9.0625 C 23.175781 -9.0625 26.253906 -10.140625 28.453125 -12.296875 C 30.660156 -14.460938 31.765625 -17.523438 31.765625 -21.484375 C 31.765625 -25.441406 30.660156 -28.519531 28.453125 -30.71875 C 26.253906 -32.925781 23.175781 -34.03125 19.21875 -34.03125 L 14.265625 -34.03125 L 14.265625 -9.0625 Z M 19.21875 -9.0625 "/></g></g></g><g fill="#000000" fill-opacity="1"><g transform="translate(150.204613, 64.307389)"><g/></g></g><g fill="#000000" fill-opacity="1"><g transform="translate(164.406857, 64.307389)"><g><path d="M 2.015625 -21.546875 C 2.015625 -25.796875 2.929688 -29.582031 4.765625 -32.90625 C 6.609375 -36.226562 9.171875 -38.816406 12.453125 -40.671875 C 15.742188 -42.535156 19.46875 -43.46875 23.625 -43.46875 C 28.726562 -43.46875 33.097656 -42.117188 36.734375 -39.421875 C 40.367188 -36.734375 42.796875 -33.0625 44.015625 -28.40625 L 32.5 -28.40625 C 31.644531 -30.195312 30.429688 -31.5625 28.859375 -32.5 C 27.285156 -33.445312 25.503906 -33.921875 23.515625 -33.921875 C 20.285156 -33.921875 17.671875 -32.796875 15.671875 -30.546875 C 13.671875 -28.304688 12.671875 -25.304688 12.671875 -21.546875 C 12.671875 -17.796875 13.671875 -14.796875 15.671875 -12.546875 C 17.671875 -10.304688 20.285156 -9.1875 23.515625 -9.1875 C 25.503906 -9.1875 27.285156 -9.65625 28.859375 -10.59375 C 30.429688 -11.53125 31.644531 -12.894531 32.5 -14.6875 L 44.015625 -14.6875 C 42.796875 -10.039062 40.367188 -6.378906 36.734375 -3.703125 C 33.097656 -1.023438 28.726562 0.3125 23.625 0.3125 C 19.46875 0.3125 15.742188 -0.613281 12.453125 -2.46875 C 9.171875 -4.332031 6.609375 -6.914062 4.765625 -10.21875 C 2.929688 -13.53125 2.015625 -17.304688 2.015625 -21.546875 Z M 2.015625 -21.546875 "/></g></g></g><g fill="#000000" fill-opacity="1"><g transform="translate(212.277968, 64.307389)"><g><path d="M 24.125 0.421875 C 20.082031 0.421875 16.375 -0.515625 13 -2.390625 C 9.632812 -4.265625 6.960938 -6.882812 4.984375 -10.25 C 3.003906 -13.613281 2.015625 -17.398438 2.015625 -21.609375 C 2.015625 -25.816406 3.003906 -29.59375 4.984375 -32.9375 C 6.960938 -36.28125 9.632812 -38.890625 13 -40.765625 C 16.375 -42.648438 20.082031 -43.59375 24.125 -43.59375 C 28.164062 -43.59375 31.867188 -42.648438 35.234375 -40.765625 C 38.597656 -38.890625 41.25 -36.28125 43.1875 -32.9375 C 45.125 -29.59375 46.09375 -25.816406 46.09375 -21.609375 C 46.09375 -17.398438 45.113281 -13.613281 43.15625 -10.25 C 41.195312 -6.882812 38.546875 -4.265625 35.203125 -2.390625 C 31.859375 -0.515625 28.164062 0.421875 24.125 0.421875 Z M 24.125 -9.125 C 27.550781 -9.125 30.296875 -10.265625 32.359375 -12.546875 C 34.421875 -14.835938 35.453125 -17.859375 35.453125 -21.609375 C 35.453125 -25.398438 34.421875 -28.425781 32.359375 -30.6875 C 30.296875 -32.957031 27.550781 -34.09375 24.125 -34.09375 C 20.65625 -34.09375 17.890625 -32.96875 15.828125 -30.71875 C 13.765625 -28.476562 12.734375 -25.441406 12.734375 -21.609375 C 12.734375 -17.816406 13.765625 -14.785156 15.828125 -12.515625 C 17.890625 -10.253906 20.65625 -9.125 24.125 -9.125 Z M 24.125 -9.125 "/></g></g></g><g fill="#000000" fill-opacity="1"><g transform="translate(261.618267, 64.307389)"><g><path d="M 8.6875 0.484375 C 6.851562 0.484375 5.351562 -0.0507812 4.1875 -1.125 C 3.03125 -2.207031 2.453125 -3.546875 2.453125 -5.140625 C 2.453125 -6.773438 3.03125 -8.140625 4.1875 -9.234375 C 5.351562 -10.335938 6.851562 -10.890625 8.6875 -10.890625 C 10.488281 -10.890625 11.96875 -10.335938 13.125 -9.234375 C 14.289062 -8.140625 14.875 -6.773438 14.875 -5.140625 C 14.875 -3.546875 14.289062 -2.207031 13.125 -1.125 C 11.96875 -0.0507812 10.488281 0.484375 8.6875 0.484375 Z M 8.6875 0.484375 "/></g></g></g></g></g><g transform="matrix(1, 0, 0, 1, 160, 518)"><g clip-path="url(#e17726a760)"><g fill="#000000" fill-opacity="1"><g transform="translate(22.08341, 31.218112)"><g><path d="M 19.265625 -11.75 C 20.554688 -11.332031 21.566406 -10.644531 22.296875 -9.6875 C 23.023438 -8.738281 23.390625 -7.5625 23.390625 -6.15625 C 23.390625 -4.175781 22.617188 -2.65625 21.078125 -1.59375 C 19.546875 -0.53125 17.304688 0 14.359375 0 L 2.671875 0 L 2.671875 -22.59375 L 13.71875 -22.59375 C 16.46875 -22.59375 18.578125 -22.0625 20.046875 -21 C 21.523438 -19.945312 22.265625 -18.519531 22.265625 -16.71875 C 22.265625 -15.613281 22 -14.628906 21.46875 -13.765625 C 20.945312 -12.910156 20.210938 -12.238281 19.265625 -11.75 Z M 7.875 -18.65625 L 7.875 -13.328125 L 13.0625 -13.328125 C 14.351562 -13.328125 15.332031 -13.550781 16 -14 C 16.664062 -14.457031 17 -15.125 17 -16 C 17 -16.882812 16.664062 -17.546875 16 -17.984375 C 15.332031 -18.429688 14.351562 -18.65625 13.0625 -18.65625 Z M 13.96875 -3.9375 C 15.34375 -3.9375 16.378906 -4.160156 17.078125 -4.609375 C 17.785156 -5.066406 18.140625 -5.769531 18.140625 -6.71875 C 18.140625 -8.582031 16.75 -9.515625 13.96875 -9.515625 L 7.875 -9.515625 L 7.875 -3.9375 Z M 13.96875 -3.9375 "/></g></g></g><g fill="#000000" fill-opacity="1"><g transform="translate(47.408777, 31.218112)"><g><path d="M 12.71875 0.390625 C 9.488281 0.390625 6.972656 -0.5 5.171875 -2.28125 C 3.378906 -4.070312 2.484375 -6.625 2.484375 -9.9375 L 2.484375 -22.59375 L 7.71875 -22.59375 L 7.71875 -10.125 C 7.71875 -6.082031 9.394531 -4.0625 12.75 -4.0625 C 14.382812 -4.0625 15.628906 -4.550781 16.484375 -5.53125 C 17.347656 -6.507812 17.78125 -8.039062 17.78125 -10.125 L 17.78125 -22.59375 L 22.9375 -22.59375 L 22.9375 -9.9375 C 22.9375 -6.625 22.035156 -4.070312 20.234375 -2.28125 C 18.441406 -0.5 15.9375 0.390625 12.71875 0.390625 Z M 12.71875 0.390625 "/></g></g></g><g fill="#000000" fill-opacity="1"><g transform="translate(73.476158, 31.218112)"><g><path d="M 2.671875 -22.59375 L 7.90625 -22.59375 L 7.90625 0 L 2.671875 0 Z M 2.671875 -22.59375 "/></g></g></g><g fill="#000000" fill-opacity="1"><g transform="translate(84.703197, 31.218112)"><g><path d="M 2.671875 -22.59375 L 7.90625 -22.59375 L 7.90625 -4.265625 L 19.234375 -4.265625 L 19.234375 0 L 2.671875 0 Z M 2.671875 -22.59375 "/></g></g></g><g fill="#000000" fill-opacity="1"><g transform="translate(102.737435, 31.218112)"><g><path d="M 7.359375 -18.328125 L 0.125 -18.328125 L 0.125 -22.59375 L 19.8125 -22.59375 L 19.8125 -18.328125 L 12.578125 -18.328125 L 12.578125 0 L 7.359375 0 Z M 7.359375 -18.328125 "/></g></g></g><g fill="#000000" fill-opacity="1"><g transform="translate(123.320347, 31.218112)"><g/></g></g><g fill="#000000" fill-opacity="1"><g transform="translate(133.09561, 31.218112)"><g><path d="M 13.609375 0.390625 C 11.265625 0.390625 9.148438 -0.113281 7.265625 -1.125 C 5.390625 -2.132812 3.921875 -3.523438 2.859375 -5.296875 C 1.796875 -7.078125 1.265625 -9.078125 1.265625 -11.296875 C 1.265625 -13.503906 1.796875 -15.492188 2.859375 -17.265625 C 3.921875 -19.046875 5.390625 -20.441406 7.265625 -21.453125 C 9.148438 -22.460938 11.265625 -22.96875 13.609375 -22.96875 C 15.960938 -22.96875 18.070312 -22.460938 19.9375 -21.453125 C 21.8125 -20.441406 23.285156 -19.046875 24.359375 -17.265625 C 25.429688 -15.492188 25.96875 -13.503906 25.96875 -11.296875 C 25.96875 -9.078125 25.429688 -7.078125 24.359375 -5.296875 C 23.285156 -3.523438 21.8125 -2.132812 19.9375 -1.125 C 18.070312 -0.113281 15.960938 0.390625 13.609375 0.390625 Z M 13.609375 -4.0625 C 14.941406 -4.0625 16.144531 -4.367188 17.21875 -4.984375 C 18.300781 -5.597656 19.148438 -6.453125 19.765625 -7.546875 C 20.378906 -8.648438 20.6875 -9.898438 20.6875 -11.296875 C 20.6875 -12.691406 20.378906 -13.9375 19.765625 -15.03125 C 19.148438 -16.132812 18.300781 -16.988281 17.21875 -17.59375 C 16.144531 -18.207031 14.941406 -18.515625 13.609375 -18.515625 C 12.273438 -18.515625 11.070312 -18.207031 10 -17.59375 C 8.925781 -16.988281 8.082031 -16.132812 7.46875 -15.03125 C 6.851562 -13.9375 6.546875 -12.691406 6.546875 -11.296875 C 6.546875 -9.898438 6.851562 -8.648438 7.46875 -7.546875 C 8.082031 -6.453125 8.925781 -5.597656 10 -4.984375 C 11.070312 -4.367188 12.273438 -4.0625 13.609375 -4.0625 Z M 13.609375 -4.0625 "/></g></g></g><g fill="#000000" fill-opacity="1"><g transform="translate(160.969643, 31.218112)"><g><path d="M 23.390625 -22.59375 L 23.390625 0 L 19.09375 0 L 7.84375 -13.71875 L 7.84375 0 L 2.671875 0 L 2.671875 -22.59375 L 7 -22.59375 L 18.234375 -8.875 L 18.234375 -22.59375 Z M 23.390625 -22.59375 "/></g></g></g><g fill="#000000" fill-opacity="1"><g transform="translate(187.682271, 31.218112)"><g/></g></g><g fill="#000000" fill-opacity="1"><g transform="translate(197.457517, 31.218112)"><g><path d="M 13.484375 0.390625 C 11.179688 0.390625 9.097656 -0.109375 7.234375 -1.109375 C 5.378906 -2.109375 3.921875 -3.492188 2.859375 -5.265625 C 1.796875 -7.046875 1.265625 -9.054688 1.265625 -11.296875 C 1.265625 -13.535156 1.796875 -15.539062 2.859375 -17.3125 C 3.921875 -19.082031 5.378906 -20.46875 7.234375 -21.46875 C 9.097656 -22.46875 11.191406 -22.96875 13.515625 -22.96875 C 15.472656 -22.96875 17.242188 -22.625 18.828125 -21.9375 C 20.410156 -21.25 21.738281 -20.257812 22.8125 -18.96875 L 19.453125 -15.875 C 17.929688 -17.632812 16.039062 -18.515625 13.78125 -18.515625 C 12.382812 -18.515625 11.132812 -18.207031 10.03125 -17.59375 C 8.9375 -16.988281 8.082031 -16.132812 7.46875 -15.03125 C 6.851562 -13.9375 6.546875 -12.691406 6.546875 -11.296875 C 6.546875 -9.898438 6.851562 -8.648438 7.46875 -7.546875 C 8.082031 -6.453125 8.9375 -5.597656 10.03125 -4.984375 C 11.132812 -4.367188 12.382812 -4.0625 13.78125 -4.0625 C 16.039062 -4.0625 17.929688 -4.957031 19.453125 -6.75 L 22.8125 -3.640625 C 21.738281 -2.328125 20.40625 -1.328125 18.8125 -0.640625 C 17.21875 0.046875 15.441406 0.390625 13.484375 0.390625 Z M 13.484375 0.390625 "/></g></g></g><g fill="#000000" fill-opacity="1"><g transform="translate(221.266595, 31.218112)"><g><path d="M 13.609375 0.390625 C 11.265625 0.390625 9.148438 -0.113281 7.265625 -1.125 C 5.390625 -2.132812 3.921875 -3.523438 2.859375 -5.296875 C 1.796875 -7.078125 1.265625 -9.078125 1.265625 -11.296875 C 1.265625 -13.503906 1.796875 -15.492188 2.859375 -17.265625 C 3.921875 -19.046875 5.390625 -20.441406 7.265625 -21.453125 C 9.148438 -22.460938 11.265625 -22.96875 13.609375 -22.96875 C 15.960938 -22.96875 18.070312 -22.460938 19.9375 -21.453125 C 21.8125 -20.441406 23.285156 -19.046875 24.359375 -17.265625 C 25.429688 -15.492188 25.96875 -13.503906 25.96875 -11.296875 C 25.96875 -9.078125 25.429688 -7.078125 24.359375 -5.296875 C 23.285156 -3.523438 21.8125 -2.132812 19.9375 -1.125 C 18.070312 -0.113281 15.960938 0.390625 13.609375 0.390625 Z M 13.609375 -4.0625 C 14.941406 -4.0625 16.144531 -4.367188 17.21875 -4.984375 C 18.300781 -5.597656 19.148438 -6.453125 19.765625 -7.546875 C 20.378906 -8.648438 20.6875 -9.898438 20.6875 -11.296875 C 20.6875 -12.691406 20.378906 -13.9375 19.765625 -15.03125 C 19.148438 -16.132812 18.300781 -16.988281 17.21875 -17.59375 C 16.144531 -18.207031 14.941406 -18.515625 13.609375 -18.515625 C 12.273438 -18.515625 11.070312 -18.207031 10 -17.59375 C 8.925781 -16.988281 8.082031 -16.132812 7.46875 -15.03125 C 6.851562 -13.9375 6.546875 -12.691406 6.546875 -11.296875 C 6.546875 -9.898438 6.851562 -8.648438 7.46875 -7.546875 C 8.082031 -6.453125 8.925781 -5.597656 10 -4.984375 C 11.070312 -4.367188 12.273438 -4.0625 13.609375 -4.0625 Z M 13.609375 -4.0625 "/></g></g></g><g fill="#000000" fill-opacity="1"><g transform="translate(249.140618, 31.218112)"><g><path d="M 23.234375 0 L 23.203125 -13.546875 L 16.546875 -2.390625 L 14.203125 -2.390625 L 7.578125 -13.265625 L 7.578125 0 L 2.671875 0 L 2.671875 -22.59375 L 7 -22.59375 L 15.453125 -8.546875 L 23.78125 -22.59375 L 28.078125 -22.59375 L 28.140625 0 Z M 23.234375 0 "/></g></g></g><g fill="#000000" fill-opacity="1"><g transform="translate(280.595702, 31.218112)"><g><path d="M 23.234375 0 L 23.203125 -13.546875 L 16.546875 -2.390625 L 14.203125 -2.390625 L 7.578125 -13.265625 L 7.578125 0 L 2.671875 0 L 2.671875 -22.59375 L 7 -22.59375 L 15.453125 -8.546875 L 23.78125 -22.59375 L 28.078125 -22.59375 L 28.140625 0 Z M 23.234375 0 "/></g></g></g><g fill="#000000" fill-opacity="1"><g transform="translate(312.050785, 31.218112)"><g><path d="M 12.71875 0.390625 C 9.488281 0.390625 6.972656 -0.5 5.171875 -2.28125 C 3.378906 -4.070312 2.484375 -6.625 2.484375 -9.9375 L 2.484375 -22.59375 L 7.71875 -22.59375 L 7.71875 -10.125 C 7.71875 -6.082031 9.394531 -4.0625 12.75 -4.0625 C 14.382812 -4.0625 15.628906 -4.550781 16.484375 -5.53125 C 17.347656 -6.507812 17.78125 -8.039062 17.78125 -10.125 L 17.78125 -22.59375 L 22.9375 -22.59375 L 22.9375 -9.9375 C 22.9375 -6.625 22.035156 -4.070312 20.234375 -2.28125 C 18.441406 -0.5 15.9375 0.390625 12.71875 0.390625 Z M 12.71875 0.390625 "/></g></g></g><g fill="#000000" fill-opacity="1"><g transform="translate(338.118166, 31.218112)"><g><path d="M 23.390625 -22.59375 L 23.390625 0 L 19.09375 0 L 7.84375 -13.71875 L 7.84375 0 L 2.671875 0 L 2.671875 -22.59375 L 7 -22.59375 L 18.234375 -8.875 L 18.234375 -22.59375 Z M 23.390625 -22.59375 "/></g></g></g><g fill="#000000" fill-opacity="1"><g transform="translate(364.830777, 31.218112)"><g><path d="M 2.671875 -22.59375 L 7.90625 -22.59375 L 7.90625 0 L 2.671875 0 Z M 2.671875 -22.59375 "/></g></g></g><g fill="#000000" fill-opacity="1"><g transform="translate(376.057807, 31.218112)"><g><path d="M 7.359375 -18.328125 L 0.125 -18.328125 L 0.125 -22.59375 L 19.8125 -22.59375 L 19.8125 -18.328125 L 12.578125 -18.328125 L 12.578125 0 L 7.359375 0 Z M 7.359375 -18.328125 "/></g></g></g><g fill="#000000" fill-opacity="1"><g transform="translate(396.22132, 31.218112)"><g><path d="M 13.515625 -8 L 13.515625 0 L 8.296875 0 L 8.296875 -8.0625 L -0.453125 -22.59375 L 5.09375 -22.59375 L 11.125 -12.546875 L 17.171875 -22.59375 L 22.296875 -22.59375 Z M 13.515625 -8 "/></g></g></g><g fill="#000000" fill-opacity="1"><g transform="translate(417.449479, 31.218112)"><g><path d="M 4.234375 0.265625 C 3.347656 0.265625 2.601562 -0.0351562 2 -0.640625 C 1.394531 -1.242188 1.09375 -2 1.09375 -2.90625 C 1.09375 -3.832031 1.394531 -4.578125 2 -5.140625 C 2.601562 -5.710938 3.347656 -6 4.234375 -6 C 5.109375 -6 5.847656 -5.710938 6.453125 -5.140625 C 7.054688 -4.578125 7.359375 -3.832031 7.359375 -2.90625 C 7.359375 -2 7.054688 -1.242188 6.453125 -0.640625 C 5.847656 -0.0351562 5.109375 0.265625 4.234375 0.265625 Z M 4.234375 0.265625 "/></g></g></g><g fill="#000000" fill-opacity="1"><g transform="translate(0.578664, 76.153941)"><g><path d="M 19.265625 -11.75 C 20.554688 -11.332031 21.566406 -10.644531 22.296875 -9.6875 C 23.023438 -8.738281 23.390625 -7.5625 23.390625 -6.15625 C 23.390625 -4.175781 22.617188 -2.65625 21.078125 -1.59375 C 19.546875 -0.53125 17.304688 0 14.359375 0 L 2.671875 0 L 2.671875 -22.59375 L 13.71875 -22.59375 C 16.46875 -22.59375 18.578125 -22.0625 20.046875 -21 C 21.523438 -19.945312 22.265625 -18.519531 22.265625 -16.71875 C 22.265625 -15.613281 22 -14.628906 21.46875 -13.765625 C 20.945312 -12.910156 20.210938 -12.238281 19.265625 -11.75 Z M 7.875 -18.65625 L 7.875 -13.328125 L 13.0625 -13.328125 C 14.351562 -13.328125 15.332031 -13.550781 16 -14 C 16.664062 -14.457031 17 -15.125 17 -16 C 17 -16.882812 16.664062 -17.546875 16 -17.984375 C 15.332031 -18.429688 14.351562 -18.65625 13.0625 -18.65625 Z M 13.96875 -3.9375 C 15.34375 -3.9375 16.378906 -4.160156 17.078125 -4.609375 C 17.785156 -5.066406 18.140625 -5.769531 18.140625 -6.71875 C 18.140625 -8.582031 16.75 -9.515625 13.96875 -9.515625 L 7.875 -9.515625 L 7.875 -3.9375 Z M 13.96875 -3.9375 "/></g></g></g><g fill="#000000" fill-opacity="1"><g transform="translate(25.904031, 76.153941)"><g><path d="M 17.546875 -4.84375 L 7.0625 -4.84375 L 5.0625 0 L -0.296875 0 L 9.78125 -22.59375 L 14.9375 -22.59375 L 25.03125 0 L 19.546875 0 Z M 15.90625 -8.8125 L 12.328125 -17.453125 L 8.75 -8.8125 Z M 15.90625 -8.8125 "/></g></g></g><g fill="#000000" fill-opacity="1"><g transform="translate(50.939045, 76.153941)"><g><path d="M 13.484375 0.390625 C 11.179688 0.390625 9.097656 -0.109375 7.234375 -1.109375 C 5.378906 -2.109375 3.921875 -3.492188 2.859375 -5.265625 C 1.796875 -7.046875 1.265625 -9.054688 1.265625 -11.296875 C 1.265625 -13.535156 1.796875 -15.539062 2.859375 -17.3125 C 3.921875 -19.082031 5.378906 -20.46875 7.234375 -21.46875 C 9.097656 -22.46875 11.191406 -22.96875 13.515625 -22.96875 C 15.472656 -22.96875 17.242188 -22.625 18.828125 -21.9375 C 20.410156 -21.25 21.738281 -20.257812 22.8125 -18.96875 L 19.453125 -15.875 C 17.929688 -17.632812 16.039062 -18.515625 13.78125 -18.515625 C 12.382812 -18.515625 11.132812 -18.207031 10.03125 -17.59375 C 8.9375 -16.988281 8.082031 -16.132812 7.46875 -15.03125 C 6.851562 -13.9375 6.546875 -12.691406 6.546875 -11.296875 C 6.546875 -9.898438 6.851562 -8.648438 7.46875 -7.546875 C 8.082031 -6.453125 8.9375 -5.597656 10.03125 -4.984375 C 11.132812 -4.367188 12.382812 -4.0625 13.78125 -4.0625 C 16.039062 -4.0625 17.929688 -4.957031 19.453125 -6.75 L 22.8125 -3.640625 C 21.738281 -2.328125 20.40625 -1.328125 18.8125 -0.640625 C 17.21875 0.046875 15.441406 0.390625 13.484375 0.390625 Z M 13.484375 0.390625 "/></g></g></g><g fill="#000000" fill-opacity="1"><g transform="translate(75.232036, 76.153941)"><g><path d="M 10.90625 -8.875 L 7.875 -5.71875 L 7.875 0 L 2.671875 0 L 2.671875 -22.59375 L 7.875 -22.59375 L 7.875 -12.03125 L 17.875 -22.59375 L 23.6875 -22.59375 L 14.328125 -12.515625 L 24.234375 0 L 18.140625 0 Z M 10.90625 -8.875 "/></g></g></g><g fill="#000000" fill-opacity="1"><g transform="translate(99.750866, 76.153941)"><g><path d="M 20.171875 -4.1875 L 20.171875 0 L 2.671875 0 L 2.671875 -22.59375 L 19.75 -22.59375 L 19.75 -18.390625 L 7.875 -18.390625 L 7.875 -13.484375 L 18.359375 -13.484375 L 18.359375 -9.421875 L 7.875 -9.421875 L 7.875 -4.1875 Z M 20.171875 -4.1875 "/></g></g></g><g fill="#000000" fill-opacity="1"><g transform="translate(122.043636, 76.153941)"><g><path d="M 2.671875 -22.59375 L 12.9375 -22.59375 C 15.382812 -22.59375 17.550781 -22.125 19.4375 -21.1875 C 21.320312 -20.25 22.785156 -18.929688 23.828125 -17.234375 C 24.867188 -15.535156 25.390625 -13.554688 25.390625 -11.296875 C 25.390625 -9.035156 24.867188 -7.054688 23.828125 -5.359375 C 22.785156 -3.660156 21.320312 -2.34375 19.4375 -1.40625 C 17.550781 -0.46875 15.382812 0 12.9375 0 L 2.671875 0 Z M 12.6875 -4.296875 C 14.9375 -4.296875 16.734375 -4.921875 18.078125 -6.171875 C 19.421875 -7.429688 20.09375 -9.140625 20.09375 -11.296875 C 20.09375 -13.441406 19.421875 -15.144531 18.078125 -16.40625 C 16.734375 -17.664062 14.9375 -18.296875 12.6875 -18.296875 L 7.90625 -18.296875 L 7.90625 -4.296875 Z M 12.6875 -4.296875 "/></g></g></g><g fill="#000000" fill-opacity="1"><g transform="translate(149.336963, 76.153941)"><g/></g></g><g fill="#000000" fill-opacity="1"><g transform="translate(159.112226, 76.153941)"><g><path d="M 19.265625 -11.75 C 20.554688 -11.332031 21.566406 -10.644531 22.296875 -9.6875 C 23.023438 -8.738281 23.390625 -7.5625 23.390625 -6.15625 C 23.390625 -4.175781 22.617188 -2.65625 21.078125 -1.59375 C 19.546875 -0.53125 17.304688 0 14.359375 0 L 2.671875 0 L 2.671875 -22.59375 L 13.71875 -22.59375 C 16.46875 -22.59375 18.578125 -22.0625 20.046875 -21 C 21.523438 -19.945312 22.265625 -18.519531 22.265625 -16.71875 C 22.265625 -15.613281 22 -14.628906 21.46875 -13.765625 C 20.945312 -12.910156 20.210938 -12.238281 19.265625 -11.75 Z M 7.875 -18.65625 L 7.875 -13.328125 L 13.0625 -13.328125 C 14.351562 -13.328125 15.332031 -13.550781 16 -14 C 16.664062 -14.457031 17 -15.125 17 -16 C 17 -16.882812 16.664062 -17.546875 16 -17.984375 C 15.332031 -18.429688 14.351562 -18.65625 13.0625 -18.65625 Z M 13.96875 -3.9375 C 15.34375 -3.9375 16.378906 -4.160156 17.078125 -4.609375 C 17.785156 -5.066406 18.140625 -5.769531 18.140625 -6.71875 C 18.140625 -8.582031 16.75 -9.515625 13.96875 -9.515625 L 7.875 -9.515625 L 7.875 -3.9375 Z M 13.96875 -3.9375 "/></g></g></g><g fill="#000000" fill-opacity="1"><g transform="translate(183.953671, 76.153941)"><g><path d="M 13.515625 -8 L 13.515625 0 L 8.296875 0 L 8.296875 -8.0625 L -0.453125 -22.59375 L 5.09375 -22.59375 L 11.125 -12.546875 L 17.171875 -22.59375 L 22.296875 -22.59375 Z M 13.515625 -8 "/></g></g></g><g fill="#000000" fill-opacity="1"><g transform="translate(206.407749, 76.153941)"><g/></g></g><g fill="#000000" fill-opacity="1"><g transform="translate(216.18303, 76.153941)"><g><path d="M 20.171875 -4.1875 L 20.171875 0 L 2.671875 0 L 2.671875 -22.59375 L 19.75 -22.59375 L 19.75 -18.390625 L 7.875 -18.390625 L 7.875 -13.484375 L 18.359375 -13.484375 L 18.359375 -9.421875 L 7.875 -9.421875 L 7.875 -4.1875 Z M 20.171875 -4.1875 "/></g></g></g><g fill="#000000" fill-opacity="1"><g transform="translate(238.249953, 76.153941)"><g><path d="M 16.90625 0 L 11.453125 -7.84375 L 6.09375 0 L 0.09375 0 L 8.453125 -11.484375 L 0.515625 -22.59375 L 6.453125 -22.59375 L 11.640625 -15.265625 L 16.75 -22.59375 L 22.390625 -22.59375 L 14.515625 -11.6875 L 22.9375 0 Z M 16.90625 0 "/></g></g></g><g fill="#000000" fill-opacity="1"><g transform="translate(261.220231, 76.153941)"><g><path d="M 12.453125 -22.59375 C 14.453125 -22.59375 16.1875 -22.253906 17.65625 -21.578125 C 19.132812 -20.910156 20.269531 -19.960938 21.0625 -18.734375 C 21.863281 -17.515625 22.265625 -16.066406 22.265625 -14.390625 C 22.265625 -12.734375 21.863281 -11.285156 21.0625 -10.046875 C 20.269531 -8.816406 19.132812 -7.875 17.65625 -7.21875 C 16.1875 -6.5625 14.453125 -6.234375 12.453125 -6.234375 L 7.90625 -6.234375 L 7.90625 0 L 2.671875 0 L 2.671875 -22.59375 Z M 12.171875 -10.484375 C 13.734375 -10.484375 14.921875 -10.820312 15.734375 -11.5 C 16.554688 -12.175781 16.96875 -13.140625 16.96875 -14.390625 C 16.96875 -15.660156 16.554688 -16.632812 15.734375 -17.3125 C 14.921875 -17.988281 13.734375 -18.328125 12.171875 -18.328125 L 7.90625 -18.328125 L 7.90625 -10.484375 Z M 12.171875 -10.484375 "/></g></g></g><g fill="#000000" fill-opacity="1"><g transform="translate(285.158355, 76.153941)"><g><path d="M 20.171875 -4.1875 L 20.171875 0 L 2.671875 0 L 2.671875 -22.59375 L 19.75 -22.59375 L 19.75 -18.390625 L 7.875 -18.390625 L 7.875 -13.484375 L 18.359375 -13.484375 L 18.359375 -9.421875 L 7.875 -9.421875 L 7.875 -4.1875 Z M 20.171875 -4.1875 "/></g></g></g><g fill="#000000" fill-opacity="1"><g transform="translate(307.451125, 76.153941)"><g><path d="M 17.0625 0 L 12.71875 -6.296875 L 7.90625 -6.296875 L 7.90625 0 L 2.671875 0 L 2.671875 -22.59375 L 12.453125 -22.59375 C 14.453125 -22.59375 16.1875 -22.253906 17.65625 -21.578125 C 19.132812 -20.910156 20.269531 -19.960938 21.0625 -18.734375 C 21.863281 -17.515625 22.265625 -16.066406 22.265625 -14.390625 C 22.265625 -12.710938 21.859375 -11.265625 21.046875 -10.046875 C 20.242188 -8.835938 19.097656 -7.910156 17.609375 -7.265625 L 22.6875 0 Z M 16.96875 -14.390625 C 16.96875 -15.660156 16.554688 -16.632812 15.734375 -17.3125 C 14.921875 -17.988281 13.734375 -18.328125 12.171875 -18.328125 L 7.90625 -18.328125 L 7.90625 -10.453125 L 12.171875 -10.453125 C 13.734375 -10.453125 14.921875 -10.796875 15.734375 -11.484375 C 16.554688 -12.171875 16.96875 -13.140625 16.96875 -14.390625 Z M 16.96875 -14.390625 "/></g></g></g><g fill="#000000" fill-opacity="1"><g transform="translate(331.80863, 76.153941)"><g><path d="M 2.671875 -22.59375 L 7.90625 -22.59375 L 7.90625 0 L 2.671875 0 Z M 2.671875 -22.59375 "/></g></g></g><g fill="#000000" fill-opacity="1"><g transform="translate(343.03566, 76.153941)"><g><path d="M 20.171875 -4.1875 L 20.171875 0 L 2.671875 0 L 2.671875 -22.59375 L 19.75 -22.59375 L 19.75 -18.390625 L 7.875 -18.390625 L 7.875 -13.484375 L 18.359375 -13.484375 L 18.359375 -9.421875 L 7.875 -9.421875 L 7.875 -4.1875 Z M 20.171875 -4.1875 "/></g></g></g><g fill="#000000" fill-opacity="1"><g transform="translate(365.328431, 76.153941)"><g><path d="M 23.390625 -22.59375 L 23.390625 0 L 19.09375 0 L 7.84375 -13.71875 L 7.84375 0 L 2.671875 0 L 2.671875 -22.59375 L 7 -22.59375 L 18.234375 -8.875 L 18.234375 -22.59375 Z M 23.390625 -22.59375 "/></g></g></g><g fill="#000000" fill-opacity="1"><g transform="translate(392.041042, 76.153941)"><g><path d="M 13.484375 0.390625 C 11.179688 0.390625 9.097656 -0.109375 7.234375 -1.109375 C 5.378906 -2.109375 3.921875 -3.492188 2.859375 -5.265625 C 1.796875 -7.046875 1.265625 -9.054688 1.265625 -11.296875 C 1.265625 -13.535156 1.796875 -15.539062 2.859375 -17.3125 C 3.921875 -19.082031 5.378906 -20.46875 7.234375 -21.46875 C 9.097656 -22.46875 11.191406 -22.96875 13.515625 -22.96875 C 15.472656 -22.96875 17.242188 -22.625 18.828125 -21.9375 C 20.410156 -21.25 21.738281 -20.257812 22.8125 -18.96875 L 19.453125 -15.875 C 17.929688 -17.632812 16.039062 -18.515625 13.78125 -18.515625 C 12.382812 -18.515625 11.132812 -18.207031 10.03125 -17.59375 C 8.9375 -16.988281 8.082031 -16.132812 7.46875 -15.03125 C 6.851562 -13.9375 6.546875 -12.691406 6.546875 -11.296875 C 6.546875 -9.898438 6.851562 -8.648438 7.46875 -7.546875 C 8.082031 -6.453125 8.9375 -5.597656 10.03125 -4.984375 C 11.132812 -4.367188 12.382812 -4.0625 13.78125 -4.0625 C 16.039062 -4.0625 17.929688 -4.957031 19.453125 -6.75 L 22.8125 -3.640625 C 21.738281 -2.328125 20.40625 -1.328125 18.8125 -0.640625 C 17.21875 0.046875 15.441406 0.390625 13.484375 0.390625 Z M 13.484375 0.390625 "/></g></g></g><g fill="#000000" fill-opacity="1"><g transform="translate(416.334059, 76.153941)"><g><path d="M 20.171875 -4.1875 L 20.171875 0 L 2.671875 0 L 2.671875 -22.59375 L 19.75 -22.59375 L 19.75 -18.390625 L 7.875 -18.390625 L 7.875 -13.484375 L 18.359375 -13.484375 L 18.359375 -9.421875 L 7.875 -9.421875 L 7.875 -4.1875 Z M 20.171875 -4.1875 "/></g></g></g><g fill="#000000" fill-opacity="1"><g transform="translate(438.949444, 76.153941)"><g><path d="M 4.234375 0.265625 C 3.347656 0.265625 2.601562 -0.0351562 2 -0.640625 C 1.394531 -1.242188 1.09375 -2 1.09375 -2.90625 C 1.09375 -3.832031 1.394531 -4.578125 2 -5.140625 C 2.601562 -5.710938 3.347656 -6 4.234375 -6 C 5.109375 -6 5.847656 -5.710938 6.453125 -5.140625 C 7.054688 -4.578125 7.359375 -3.832031 7.359375 -2.90625 C 7.359375 -2 7.054688 -1.242188 6.453125 -0.640625 C 5.847656 -0.0351562 5.109375 0.265625 4.234375 0.265625 Z M 4.234375 0.265625 "/></g></g></g></g></g></svg>