<svg xmlns="http://www.w3.org/2000/svg" xmlns:xlink="http://www.w3.org/1999/xlink" width="1024" zoomAndPan="magnify" viewBox="0 0 768 767.999994" height="1024" preserveAspectRatio="xMidYMid meet" version="1.0"><defs><g/><clipPath id="156ceace16"><rect x="0" width="660" y="0" height="247"/></clipPath><clipPath id="d68c8ee425"><rect x="0" width="353" y="0" height="108"/></clipPath><clipPath id="37b829f93d"><rect x="0" width="563" y="0" height="107"/></clipPath></defs><path fill="#f9f2e3" d="M 34.148438 128.121094 C 25.777344 131.136719 20.460938 135.75 16.320312 143.59375 L 13.8125 148.339844 L 13.566406 266.402344 C 13.28125 399.84375 12.773438 390.371094 20.683594 399.167969 C 23.003906 401.746094 26.941406 404.890625 29.433594 406.15625 C 31.925781 407.417969 45.09375 412.226562 58.699219 416.839844 C 79.1875 423.789062 115.976562 436.628906 137.050781 444.183594 C 139.640625 445.109375 157.632812 451.792969 177.035156 459.03125 C 257.351562 489 290.761719 497.5625 347.308594 502.671875 C 363.871094 504.167969 411.089844 504.152344 427.273438 502.644531 C 482.101562 497.535156 516.792969 488.722656 588.613281 461.644531 C 611.890625 452.871094 614.546875 451.890625 660.109375 435.25 C 687.929688 425.085938 698.648438 421.210938 721.257812 413.136719 C 742.011719 405.722656 749.890625 400.109375 753.648438 390.066406 C 755.578125 384.914062 755.59375 383.839844 755.59375 267.949219 C 755.59375 162.695312 755.445312 150.582031 754.074219 146.5625 C 751.996094 140.46875 743.855469 131.816406 737.496094 128.941406 L 732.546875 126.703125 L 385.878906 126.5 C 44.933594 126.300781 39.128906 126.328125 34.148438 128.121094 M 41.972656 142.164062 C 37.171875 143.320312 33.394531 146.082031 31.070312 150.136719 L 28.867188 153.984375 L 28.867188 268.285156 C 28.867188 378.878906 28.925781 382.695312 30.65625 385.878906 C 33.574219 391.25 35.445312 392.296875 52.382812 398.070312 C 58.59375 400.183594 65.789062 402.71875 68.378906 403.703125 C 70.964844 404.683594 80.277344 407.929688 89.074219 410.914062 C 97.871094 413.898438 106.125 416.894531 107.417969 417.570312 C 108.710938 418.242188 110.28125 418.796875 110.90625 418.800781 C 111.90625 418.804688 149.265625 432.109375 155.398438 434.644531 C 156.691406 435.179688 162.617188 437.390625 168.566406 439.558594 C 174.515625 441.726562 180.65625 444.042969 182.207031 444.707031 C 186.019531 446.339844 210.09375 455.015625 221.71875 458.949219 C 226.894531 460.699219 231.972656 462.515625 233.007812 462.984375 C 235.234375 463.996094 266.757812 473.308594 270.167969 473.960938 C 271.460938 474.210938 275.90625 475.277344 280.046875 476.335938 C 284.183594 477.394531 288.628906 478.4375 289.925781 478.65625 C 291.21875 478.875 293.546875 479.328125 295.097656 479.664062 C 296.648438 480 298.554688 480.355469 299.332031 480.457031 C 300.109375 480.558594 306.457031 481.519531 313.441406 482.589844 C 320.425781 483.664062 331.222656 485.023438 337.433594 485.613281 C 343.640625 486.203125 351.894531 487.039062 355.777344 487.476562 C 362.335938 488.214844 418.023438 487.914062 425.390625 487.105469 C 427.203125 486.90625 431.222656 486.476562 434.328125 486.148438 C 437.433594 485.824219 441.242188 485.371094 442.796875 485.136719 C 444.347656 484.90625 447.945312 484.476562 450.792969 484.183594 C 453.636719 483.890625 456.601562 483.523438 457.378906 483.367188 C 460.125 482.808594 465.410156 481.863281 468.195312 481.433594 C 478.738281 479.800781 501.246094 474.515625 514.082031 470.660156 C 525.191406 467.324219 524.429688 467.550781 525.582031 467.191406 C 542.054688 462.03125 566.160156 453.824219 573.386719 450.917969 C 574.84375 450.332031 576.4375 449.851562 576.925781 449.851562 C 577.417969 449.851562 578.554688 449.425781 579.453125 448.902344 C 581.0625 447.96875 604.410156 439.171875 614.484375 435.703125 C 617.328125 434.722656 623.679688 432.386719 628.59375 430.515625 C 633.507812 428.644531 637.953125 427 638.472656 426.867188 C 638.988281 426.730469 640.472656 426.203125 641.765625 425.691406 C 643.058594 425.183594 648.5625 423.160156 653.996094 421.199219 C 659.425781 419.238281 664.71875 417.269531 665.753906 416.824219 C 666.789062 416.375 674.832031 413.425781 683.628906 410.261719 C 692.421875 407.101562 703.21875 403.132812 707.617188 401.4375 C 713 399.371094 718.394531 397.328125 723.792969 395.308594 C 733.007812 391.867188 738.078125 387.664062 739.597656 382.199219 C 740.191406 380.046875 740.535156 338.277344 740.539062 266.839844 L 740.542969 154.855469 L 738.425781 150.65625 C 736.941406 147.714844 735.042969 145.753906 732.078125 144.109375 L 727.84375 141.753906 L 386.351562 141.613281 C 198.53125 141.535156 43.558594 141.785156 41.972656 142.164062 " fill-opacity="1" fill-rule="evenodd"/><g transform="matrix(1, 0, 0, 1, 54, 114)"><g clip-path="url(#156ceace16)"><g fill="#f9f2e3" fill-opacity="1"><g transform="translate(1.477933, 204.744127)"><g><path d="M 13.3125 0 C 12.625 0 12.039062 -0.238281 11.5625 -0.71875 C 11.09375 -1.195312 10.859375 -1.773438 10.859375 -2.453125 L 10.859375 -140.875 C 10.859375 -141.550781 11.09375 -142.128906 11.5625 -142.609375 C 12.039062 -143.085938 12.625 -143.328125 13.3125 -143.328125 L 37.265625 -143.328125 C 37.941406 -143.328125 38.519531 -143.085938 39 -142.609375 C 39.476562 -142.128906 39.71875 -141.550781 39.71875 -140.875 L 39.71875 -86.40625 C 39.71875 -86 39.890625 -85.722656 40.234375 -85.578125 C 40.578125 -85.441406 40.816406 -85.582031 40.953125 -86 L 77.59375 -141.6875 C 78.28125 -142.78125 79.238281 -143.328125 80.46875 -143.328125 L 106.875 -143.328125 C 107.832031 -143.328125 108.484375 -143.050781 108.828125 -142.5 C 109.171875 -141.957031 109.066406 -141.273438 108.515625 -140.453125 L 70.640625 -81.6875 C 70.503906 -81.28125 70.503906 -80.804688 70.640625 -80.265625 L 110.765625 -2.859375 C 111.035156 -2.316406 111.171875 -1.910156 111.171875 -1.640625 C 111.171875 -0.546875 110.421875 0 108.921875 0 L 82.71875 0 C 81.488281 0 80.535156 -0.613281 79.859375 -1.84375 L 50.78125 -57.9375 C 50.644531 -58.351562 50.4375 -58.5625 50.15625 -58.5625 C 49.882812 -58.5625 49.613281 -58.351562 49.34375 -57.9375 L 40.125 -44.640625 C 39.851562 -44.085938 39.71875 -43.675781 39.71875 -43.40625 L 39.71875 -2.453125 C 39.71875 -1.773438 39.476562 -1.195312 39 -0.71875 C 38.519531 -0.238281 37.941406 0 37.265625 0 Z M 13.3125 0 "/></g></g></g><g fill="#f9f2e3" fill-opacity="1"><g transform="translate(115.723445, 204.744127)"><g><path d="M 98.078125 -121 C 98.078125 -120.320312 97.835938 -119.742188 97.359375 -119.265625 C 96.878906 -118.785156 96.300781 -118.546875 95.625 -118.546875 L 40.75 -118.546875 C 40.0625 -118.546875 39.71875 -118.207031 39.71875 -117.53125 L 39.71875 -85.578125 C 39.71875 -84.898438 40.0625 -84.5625 40.75 -84.5625 L 74.9375 -84.5625 C 75.625 -84.5625 76.203125 -84.320312 76.671875 -83.84375 C 77.148438 -83.363281 77.390625 -82.785156 77.390625 -82.109375 L 77.390625 -62.25 C 77.390625 -61.5625 77.148438 -60.976562 76.671875 -60.5 C 76.203125 -60.019531 75.625 -59.78125 74.9375 -59.78125 L 40.75 -59.78125 C 40.0625 -59.78125 39.71875 -59.441406 39.71875 -58.765625 L 39.71875 -25.796875 C 39.71875 -25.117188 40.0625 -24.78125 40.75 -24.78125 L 95.625 -24.78125 C 96.300781 -24.78125 96.878906 -24.539062 97.359375 -24.0625 C 97.835938 -23.582031 98.078125 -23 98.078125 -22.3125 L 98.078125 -2.453125 C 98.078125 -1.773438 97.835938 -1.195312 97.359375 -0.71875 C 96.878906 -0.238281 96.300781 0 95.625 0 L 13.3125 0 C 12.625 0 12.039062 -0.238281 11.5625 -0.71875 C 11.09375 -1.195312 10.859375 -1.773438 10.859375 -2.453125 L 10.859375 -140.875 C 10.859375 -141.550781 11.09375 -142.128906 11.5625 -142.609375 C 12.039062 -143.085938 12.625 -143.328125 13.3125 -143.328125 L 95.625 -143.328125 C 96.300781 -143.328125 96.878906 -143.085938 97.359375 -142.609375 C 97.835938 -142.128906 98.078125 -141.550781 98.078125 -140.875 Z M 98.078125 -121 "/></g></g></g><g fill="#f9f2e3" fill-opacity="1"><g transform="translate(220.346126, 204.744127)"><g><path d="M 53.84375 1.640625 C 44.425781 1.640625 36.164062 -0.03125 29.0625 -3.375 C 21.96875 -6.71875 16.472656 -11.425781 12.578125 -17.5 C 8.691406 -23.582031 6.75 -30.582031 6.75 -38.5 L 6.75 -43.8125 C 6.75 -44.5 6.988281 -45.082031 7.46875 -45.5625 C 7.945312 -46.039062 8.53125 -46.28125 9.21875 -46.28125 L 32.765625 -46.28125 C 33.441406 -46.28125 34.019531 -46.039062 34.5 -45.5625 C 34.976562 -45.082031 35.21875 -44.5 35.21875 -43.8125 L 35.21875 -39.921875 C 35.21875 -35.148438 36.988281 -31.160156 40.53125 -27.953125 C 44.082031 -24.742188 48.863281 -23.140625 54.875 -23.140625 C 60.195312 -23.140625 64.253906 -24.503906 67.046875 -27.234375 C 69.847656 -29.960938 71.25 -33.441406 71.25 -37.671875 C 71.25 -40.816406 70.359375 -43.515625 68.578125 -45.765625 C 66.804688 -48.015625 64.316406 -50.128906 61.109375 -52.109375 C 57.910156 -54.085938 52.96875 -56.785156 46.28125 -60.203125 C 38.082031 -64.296875 31.390625 -68.113281 26.203125 -71.65625 C 21.015625 -75.207031 16.578125 -79.78125 12.890625 -85.375 C 9.210938 -90.976562 7.375 -97.738281 7.375 -105.65625 C 7.375 -113.570312 9.25 -120.5 13 -126.4375 C 16.75 -132.375 22.035156 -136.945312 28.859375 -140.15625 C 35.691406 -143.363281 43.476562 -144.96875 52.21875 -144.96875 C 61.351562 -144.96875 69.46875 -143.222656 76.5625 -139.734375 C 83.664062 -136.253906 89.195312 -131.375 93.15625 -125.09375 C 97.113281 -118.820312 99.09375 -111.59375 99.09375 -103.40625 L 99.09375 -99.296875 C 99.09375 -98.617188 98.851562 -98.039062 98.375 -97.5625 C 97.90625 -97.082031 97.328125 -96.84375 96.640625 -96.84375 L 73.09375 -96.84375 C 72.414062 -96.84375 71.835938 -97.082031 71.359375 -97.5625 C 70.878906 -98.039062 70.640625 -98.617188 70.640625 -99.296875 L 70.640625 -102.984375 C 70.640625 -107.898438 68.929688 -111.992188 65.515625 -115.265625 C 62.109375 -118.546875 57.46875 -120.1875 51.59375 -120.1875 C 46.675781 -120.1875 42.816406 -118.921875 40.015625 -116.390625 C 37.222656 -113.867188 35.828125 -110.359375 35.828125 -105.859375 C 35.828125 -102.710938 36.644531 -99.976562 38.28125 -97.65625 C 39.925781 -95.34375 42.453125 -93.128906 45.859375 -91.015625 C 49.273438 -88.898438 54.460938 -86.132812 61.421875 -82.71875 L 65.71875 -80.265625 C 73.632812 -75.890625 79.8125 -72.097656 84.25 -68.890625 C 88.6875 -65.691406 92.40625 -61.632812 95.40625 -56.71875 C 98.414062 -51.800781 99.921875 -45.863281 99.921875 -38.90625 C 99.921875 -26.476562 95.722656 -16.613281 87.328125 -9.3125 C 78.929688 -2.007812 67.769531 1.640625 53.84375 1.640625 Z M 53.84375 1.640625 "/></g></g></g><g fill="#f9f2e3" fill-opacity="1"><g transform="translate(325.378237, 204.744127)"><g><path d="M 99.921875 -143.328125 C 100.597656 -143.328125 101.175781 -143.085938 101.65625 -142.609375 C 102.132812 -142.128906 102.375 -141.550781 102.375 -140.875 L 102.375 -120.796875 C 102.375 -120.117188 102.132812 -119.539062 101.65625 -119.0625 C 101.175781 -118.582031 100.597656 -118.34375 99.921875 -118.34375 L 68.796875 -118.34375 C 68.109375 -118.34375 67.765625 -118.003906 67.765625 -117.328125 L 67.765625 -2.453125 C 67.765625 -1.773438 67.523438 -1.195312 67.046875 -0.71875 C 66.578125 -0.238281 66 0 65.3125 0 L 41.359375 0 C 40.671875 0 40.085938 -0.238281 39.609375 -0.71875 C 39.140625 -1.195312 38.90625 -1.773438 38.90625 -2.453125 L 38.90625 -117.328125 C 38.90625 -118.003906 38.5625 -118.34375 37.875 -118.34375 L 7.78125 -118.34375 C 7.09375 -118.34375 6.507812 -118.582031 6.03125 -119.0625 C 5.5625 -119.539062 5.328125 -120.117188 5.328125 -120.796875 L 5.328125 -140.875 C 5.328125 -141.550781 5.5625 -142.128906 6.03125 -142.609375 C 6.507812 -143.085938 7.09375 -143.328125 7.78125 -143.328125 Z M 99.921875 -143.328125 "/></g></g></g><g fill="#f9f2e3" fill-opacity="1"><g transform="translate(433.072017, 204.744127)"><g><path d="M 98.078125 -121 C 98.078125 -120.320312 97.835938 -119.742188 97.359375 -119.265625 C 96.878906 -118.785156 96.300781 -118.546875 95.625 -118.546875 L 40.75 -118.546875 C 40.0625 -118.546875 39.71875 -118.207031 39.71875 -117.53125 L 39.71875 -85.578125 C 39.71875 -84.898438 40.0625 -84.5625 40.75 -84.5625 L 74.9375 -84.5625 C 75.625 -84.5625 76.203125 -84.320312 76.671875 -83.84375 C 77.148438 -83.363281 77.390625 -82.785156 77.390625 -82.109375 L 77.390625 -62.25 C 77.390625 -61.5625 77.148438 -60.976562 76.671875 -60.5 C 76.203125 -60.019531 75.625 -59.78125 74.9375 -59.78125 L 40.75 -59.78125 C 40.0625 -59.78125 39.71875 -59.441406 39.71875 -58.765625 L 39.71875 -25.796875 C 39.71875 -25.117188 40.0625 -24.78125 40.75 -24.78125 L 95.625 -24.78125 C 96.300781 -24.78125 96.878906 -24.539062 97.359375 -24.0625 C 97.835938 -23.582031 98.078125 -23 98.078125 -22.3125 L 98.078125 -2.453125 C 98.078125 -1.773438 97.835938 -1.195312 97.359375 -0.71875 C 96.878906 -0.238281 96.300781 0 95.625 0 L 13.3125 0 C 12.625 0 12.039062 -0.238281 11.5625 -0.71875 C 11.09375 -1.195312 10.859375 -1.773438 10.859375 -2.453125 L 10.859375 -140.875 C 10.859375 -141.550781 11.09375 -142.128906 11.5625 -142.609375 C 12.039062 -143.085938 12.625 -143.328125 13.3125 -143.328125 L 95.625 -143.328125 C 96.300781 -143.328125 96.878906 -143.085938 97.359375 -142.609375 C 97.835938 -142.128906 98.078125 -141.550781 98.078125 -140.875 Z M 98.078125 -121 "/></g></g></g><g fill="#f9f2e3" fill-opacity="1"><g transform="translate(537.694716, 204.744127)"><g><path d="M 81.28125 -140.875 C 81.28125 -141.550781 81.519531 -142.128906 82 -142.609375 C 82.476562 -143.085938 83.0625 -143.328125 83.75 -143.328125 L 107.5 -143.328125 C 108.175781 -143.328125 108.753906 -143.085938 109.234375 -142.609375 C 109.710938 -142.128906 109.953125 -141.550781 109.953125 -140.875 L 109.953125 -2.453125 C 109.953125 -1.773438 109.710938 -1.195312 109.234375 -0.71875 C 108.753906 -0.238281 108.175781 0 107.5 0 L 82.515625 0 C 81.148438 0 80.191406 -0.613281 79.640625 -1.84375 L 40.546875 -85.171875 C 40.265625 -85.585938 39.988281 -85.796875 39.71875 -85.796875 C 39.445312 -85.796875 39.3125 -85.519531 39.3125 -84.96875 L 39.515625 -2.453125 C 39.515625 -1.773438 39.273438 -1.195312 38.796875 -0.71875 C 38.316406 -0.238281 37.738281 0 37.0625 0 L 13.3125 0 C 12.625 0 12.039062 -0.238281 11.5625 -0.71875 C 11.09375 -1.195312 10.859375 -1.773438 10.859375 -2.453125 L 10.859375 -140.875 C 10.859375 -141.550781 11.09375 -142.128906 11.5625 -142.609375 C 12.039062 -143.085938 12.625 -143.328125 13.3125 -143.328125 L 38.078125 -143.328125 C 39.441406 -143.328125 40.398438 -142.710938 40.953125 -141.484375 L 80.0625 -58.15625 C 80.332031 -57.738281 80.601562 -57.53125 80.875 -57.53125 C 81.144531 -57.53125 81.28125 -57.804688 81.28125 -58.359375 Z M 81.28125 -140.875 "/></g></g></g></g></g><g transform="matrix(1, 0, 0, 1, 217, 341)"><g clip-path="url(#d68c8ee425)"><g fill="#f9f2e3" fill-opacity="1"><g transform="translate(1.530149, 79.761356)"><g><path d="M 39.84375 -53.90625 L 39.84375 -43.375 L 17.890625 -43.375 L 17.890625 -32.015625 L 34.328125 -32.015625 L 34.328125 -21.8125 L 17.890625 -21.8125 L 17.890625 0 L 4.765625 0 L 4.765625 -53.90625 Z M 39.84375 -53.90625 "/></g></g></g><g fill="#f9f2e3" fill-opacity="1"><g transform="translate(45.067719, 79.761356)"><g><path d="M 17.890625 -43.375 L 17.890625 -32.484375 L 35.46875 -32.484375 L 35.46875 -22.34375 L 17.890625 -22.34375 L 17.890625 -10.515625 L 37.78125 -10.515625 L 37.78125 0 L 4.765625 0 L 4.765625 -53.90625 L 37.78125 -53.90625 L 37.78125 -43.375 Z M 17.890625 -43.375 "/></g></g></g><g fill="#f9f2e3" fill-opacity="1"><g transform="translate(88.144561, 79.761356)"><g><path d="M 17.890625 -43.375 L 17.890625 -32.484375 L 35.46875 -32.484375 L 35.46875 -22.34375 L 17.890625 -22.34375 L 17.890625 -10.515625 L 37.78125 -10.515625 L 37.78125 0 L 4.765625 0 L 4.765625 -53.90625 L 37.78125 -53.90625 L 37.78125 -43.375 Z M 17.890625 -43.375 "/></g></g></g><g fill="#f9f2e3" fill-opacity="1"><g transform="translate(131.221403, 79.761356)"><g><path d="M 24.953125 -53.90625 C 30.640625 -53.90625 35.601562 -52.773438 39.84375 -50.515625 C 44.09375 -48.265625 47.378906 -45.101562 49.703125 -41.03125 C 52.035156 -36.96875 53.203125 -32.273438 53.203125 -26.953125 C 53.203125 -21.679688 52.035156 -16.992188 49.703125 -12.890625 C 47.378906 -8.796875 44.082031 -5.625 39.8125 -3.375 C 35.539062 -1.125 30.585938 0 24.953125 0 L 4.765625 0 L 4.765625 -53.90625 Z M 24.109375 -11.359375 C 29.078125 -11.359375 32.941406 -12.710938 35.703125 -15.421875 C 38.460938 -18.140625 39.84375 -21.984375 39.84375 -26.953125 C 39.84375 -31.910156 38.460938 -35.769531 35.703125 -38.53125 C 32.941406 -41.300781 29.078125 -42.6875 24.109375 -42.6875 L 17.890625 -42.6875 L 17.890625 -11.359375 Z M 24.109375 -11.359375 "/></g></g></g><g fill="#f9f2e3" fill-opacity="1"><g transform="translate(188.580369, 79.761356)"><g/></g></g><g fill="#f9f2e3" fill-opacity="1"><g transform="translate(206.394758, 79.761356)"><g><path d="M 2.53125 -27.03125 C 2.53125 -32.351562 3.679688 -37.097656 5.984375 -41.265625 C 8.285156 -45.441406 11.5 -48.691406 15.625 -51.015625 C 19.75 -53.347656 24.421875 -54.515625 29.640625 -54.515625 C 36.035156 -54.515625 41.507812 -52.820312 46.0625 -49.4375 C 50.625 -46.0625 53.671875 -41.457031 55.203125 -35.625 L 40.765625 -35.625 C 39.691406 -37.875 38.171875 -39.585938 36.203125 -40.765625 C 34.234375 -41.941406 31.992188 -42.53125 29.484375 -42.53125 C 25.441406 -42.53125 22.164062 -41.125 19.65625 -38.3125 C 17.144531 -35.5 15.890625 -31.738281 15.890625 -27.03125 C 15.890625 -22.320312 17.144531 -18.554688 19.65625 -15.734375 C 22.164062 -12.921875 25.441406 -11.515625 29.484375 -11.515625 C 31.992188 -11.515625 34.234375 -12.101562 36.203125 -13.28125 C 38.171875 -14.457031 39.691406 -16.171875 40.765625 -18.421875 L 55.203125 -18.421875 C 53.671875 -12.585938 50.625 -7.992188 46.0625 -4.640625 C 41.507812 -1.285156 36.035156 0.390625 29.640625 0.390625 C 24.421875 0.390625 19.75 -0.773438 15.625 -3.109375 C 11.5 -5.441406 8.285156 -8.679688 5.984375 -12.828125 C 3.679688 -16.972656 2.53125 -21.707031 2.53125 -27.03125 Z M 2.53125 -27.03125 "/></g></g></g><g fill="#f9f2e3" fill-opacity="1"><g transform="translate(266.441227, 79.761356)"><g><path d="M 30.25 0.53125 C 25.1875 0.53125 20.539062 -0.644531 16.3125 -3 C 12.09375 -5.351562 8.738281 -8.640625 6.25 -12.859375 C 3.769531 -17.085938 2.53125 -21.835938 2.53125 -27.109375 C 2.53125 -32.378906 3.769531 -37.113281 6.25 -41.3125 C 8.738281 -45.507812 12.09375 -48.785156 16.3125 -51.140625 C 20.539062 -53.492188 25.1875 -54.671875 30.25 -54.671875 C 35.320312 -54.671875 39.96875 -53.492188 44.1875 -51.140625 C 48.40625 -48.785156 51.726562 -45.507812 54.15625 -41.3125 C 56.59375 -37.113281 57.8125 -32.378906 57.8125 -27.109375 C 57.8125 -21.835938 56.582031 -17.085938 54.125 -12.859375 C 51.664062 -8.640625 48.335938 -5.351562 44.140625 -3 C 39.953125 -0.644531 35.320312 0.53125 30.25 0.53125 Z M 30.25 -11.4375 C 34.550781 -11.4375 37.992188 -12.867188 40.578125 -15.734375 C 43.160156 -18.609375 44.453125 -22.398438 44.453125 -27.109375 C 44.453125 -31.867188 43.160156 -35.664062 40.578125 -38.5 C 37.992188 -41.34375 34.550781 -42.765625 30.25 -42.765625 C 25.894531 -42.765625 22.425781 -41.359375 19.84375 -38.546875 C 17.257812 -35.734375 15.96875 -31.921875 15.96875 -27.109375 C 15.96875 -22.347656 17.257812 -18.546875 19.84375 -15.703125 C 22.425781 -12.859375 25.894531 -11.4375 30.25 -11.4375 Z M 30.25 -11.4375 "/></g></g></g><g fill="#f9f2e3" fill-opacity="1"><g transform="translate(328.330551, 79.761356)"><g><path d="M 10.90625 0.609375 C 8.601562 0.609375 6.722656 -0.0664062 5.265625 -1.421875 C 3.804688 -2.773438 3.078125 -4.453125 3.078125 -6.453125 C 3.078125 -8.492188 3.804688 -10.207031 5.265625 -11.59375 C 6.722656 -12.976562 8.601562 -13.671875 10.90625 -13.671875 C 13.15625 -13.671875 15.007812 -12.976562 16.46875 -11.59375 C 17.925781 -10.207031 18.65625 -8.492188 18.65625 -6.453125 C 18.65625 -4.453125 17.925781 -2.773438 16.46875 -1.421875 C 15.007812 -0.0664062 13.15625 0.609375 10.90625 0.609375 Z M 10.90625 0.609375 "/></g></g></g></g></g><g transform="matrix(1, 0, 0, 1, 103, 552)"><g clip-path="url(#37b829f93d)"><g fill="#f9f2e3" fill-opacity="1"><g transform="translate(27.728715, 39.239117)"><g><path d="M 24.15625 -14.734375 C 25.78125 -14.222656 27.050781 -13.363281 27.96875 -12.15625 C 28.882812 -10.957031 29.34375 -9.484375 29.34375 -7.734375 C 29.34375 -5.242188 28.375 -3.332031 26.4375 -2 C 24.507812 -0.664062 21.703125 0 18.015625 0 L 3.359375 0 L 3.359375 -28.328125 L 17.203125 -28.328125 C 20.648438 -28.328125 23.296875 -27.664062 25.140625 -26.34375 C 26.992188 -25.019531 27.921875 -23.226562 27.921875 -20.96875 C 27.921875 -19.59375 27.585938 -18.363281 26.921875 -17.28125 C 26.265625 -16.195312 25.34375 -15.347656 24.15625 -14.734375 Z M 9.875 -23.390625 L 9.875 -16.71875 L 16.390625 -16.71875 C 18.003906 -16.71875 19.226562 -17 20.0625 -17.5625 C 20.90625 -18.125 21.328125 -18.960938 21.328125 -20.078125 C 21.328125 -21.179688 20.90625 -22.007812 20.0625 -22.5625 C 19.226562 -23.113281 18.003906 -23.390625 16.390625 -23.390625 Z M 17.515625 -4.9375 C 19.242188 -4.9375 20.546875 -5.21875 21.421875 -5.78125 C 22.304688 -6.351562 22.75 -7.234375 22.75 -8.421875 C 22.75 -10.765625 21.003906 -11.9375 17.515625 -11.9375 L 9.875 -11.9375 L 9.875 -4.9375 Z M 17.515625 -4.9375 "/></g></g></g><g fill="#f9f2e3" fill-opacity="1"><g transform="translate(59.495243, 39.239117)"><g><path d="M 15.9375 0.484375 C 11.894531 0.484375 8.742188 -0.632812 6.484375 -2.875 C 4.234375 -5.113281 3.109375 -8.3125 3.109375 -12.46875 L 3.109375 -28.328125 L 9.671875 -28.328125 L 9.671875 -12.703125 C 9.671875 -7.628906 11.773438 -5.09375 15.984375 -5.09375 C 18.035156 -5.09375 19.597656 -5.707031 20.671875 -6.9375 C 21.753906 -8.164062 22.296875 -10.085938 22.296875 -12.703125 L 22.296875 -28.328125 L 28.765625 -28.328125 L 28.765625 -12.46875 C 28.765625 -8.3125 27.640625 -5.113281 25.390625 -2.875 C 23.140625 -0.632812 19.988281 0.484375 15.9375 0.484375 Z M 15.9375 0.484375 "/></g></g></g><g fill="#f9f2e3" fill-opacity="1"><g transform="translate(92.192508, 39.239117)"><g><path d="M 3.359375 -28.328125 L 9.921875 -28.328125 L 9.921875 0 L 3.359375 0 Z M 3.359375 -28.328125 "/></g></g></g><g fill="#f9f2e3" fill-opacity="1"><g transform="translate(106.274991, 39.239117)"><g><path d="M 3.359375 -28.328125 L 9.921875 -28.328125 L 9.921875 -5.34375 L 24.125 -5.34375 L 24.125 0 L 3.359375 0 Z M 3.359375 -28.328125 "/></g></g></g><g fill="#f9f2e3" fill-opacity="1"><g transform="translate(128.895991, 39.239117)"><g><path d="M 9.234375 -22.984375 L 0.15625 -22.984375 L 0.15625 -28.328125 L 24.84375 -28.328125 L 24.84375 -22.984375 L 15.78125 -22.984375 L 15.78125 0 L 9.234375 0 Z M 9.234375 -22.984375 "/></g></g></g><g fill="#f9f2e3" fill-opacity="1"><g transform="translate(154.713887, 39.239117)"><g/></g></g><g fill="#f9f2e3" fill-opacity="1"><g transform="translate(166.975355, 39.239117)"><g><path d="M 17.078125 0.484375 C 14.140625 0.484375 11.488281 -0.144531 9.125 -1.40625 C 6.757812 -2.675781 4.910156 -4.425781 3.578125 -6.65625 C 2.242188 -8.882812 1.578125 -11.382812 1.578125 -14.15625 C 1.578125 -16.9375 2.242188 -19.441406 3.578125 -21.671875 C 4.910156 -23.898438 6.757812 -25.644531 9.125 -26.90625 C 11.488281 -28.175781 14.140625 -28.8125 17.078125 -28.8125 C 20.015625 -28.8125 22.65625 -28.175781 25 -26.90625 C 27.351562 -25.644531 29.203125 -23.898438 30.546875 -21.671875 C 31.898438 -19.441406 32.578125 -16.9375 32.578125 -14.15625 C 32.578125 -11.382812 31.898438 -8.882812 30.546875 -6.65625 C 29.203125 -4.425781 27.351562 -2.675781 25 -1.40625 C 22.65625 -0.144531 20.015625 0.484375 17.078125 0.484375 Z M 17.078125 -5.09375 C 18.753906 -5.09375 20.265625 -5.476562 21.609375 -6.25 C 22.960938 -7.019531 24.019531 -8.09375 24.78125 -9.46875 C 25.550781 -10.84375 25.9375 -12.40625 25.9375 -14.15625 C 25.9375 -15.914062 25.550781 -17.484375 24.78125 -18.859375 C 24.019531 -20.234375 22.960938 -21.304688 21.609375 -22.078125 C 20.265625 -22.847656 18.753906 -23.234375 17.078125 -23.234375 C 15.398438 -23.234375 13.882812 -22.847656 12.53125 -22.078125 C 11.1875 -21.304688 10.128906 -20.234375 9.359375 -18.859375 C 8.597656 -17.484375 8.21875 -15.914062 8.21875 -14.15625 C 8.21875 -12.40625 8.597656 -10.84375 9.359375 -9.46875 C 10.128906 -8.09375 11.1875 -7.019531 12.53125 -6.25 C 13.882812 -5.476562 15.398438 -5.09375 17.078125 -5.09375 Z M 17.078125 -5.09375 "/></g></g></g><g fill="#f9f2e3" fill-opacity="1"><g transform="translate(201.938768, 39.239117)"><g><path d="M 29.34375 -28.328125 L 29.34375 0 L 23.953125 0 L 9.828125 -17.203125 L 9.828125 0 L 3.359375 0 L 3.359375 -28.328125 L 8.78125 -28.328125 L 22.859375 -11.125 L 22.859375 -28.328125 Z M 29.34375 -28.328125 "/></g></g></g><g fill="#f9f2e3" fill-opacity="1"><g transform="translate(235.44539, 39.239117)"><g/></g></g><g fill="#f9f2e3" fill-opacity="1"><g transform="translate(247.706836, 39.239117)"><g><path d="M 16.921875 0.484375 C 14.023438 0.484375 11.410156 -0.140625 9.078125 -1.390625 C 6.742188 -2.648438 4.910156 -4.390625 3.578125 -6.609375 C 2.242188 -8.835938 1.578125 -11.351562 1.578125 -14.15625 C 1.578125 -16.96875 2.242188 -19.484375 3.578125 -21.703125 C 4.910156 -23.929688 6.742188 -25.671875 9.078125 -26.921875 C 11.410156 -28.179688 14.035156 -28.8125 16.953125 -28.8125 C 19.410156 -28.8125 21.628906 -28.378906 23.609375 -27.515625 C 25.597656 -26.648438 27.265625 -25.410156 28.609375 -23.796875 L 24.40625 -19.90625 C 22.488281 -22.125 20.113281 -23.234375 17.28125 -23.234375 C 15.53125 -23.234375 13.960938 -22.847656 12.578125 -22.078125 C 11.203125 -21.304688 10.128906 -20.234375 9.359375 -18.859375 C 8.597656 -17.484375 8.21875 -15.914062 8.21875 -14.15625 C 8.21875 -12.40625 8.597656 -10.84375 9.359375 -9.46875 C 10.128906 -8.09375 11.203125 -7.019531 12.578125 -6.25 C 13.960938 -5.476562 15.53125 -5.09375 17.28125 -5.09375 C 20.113281 -5.09375 22.488281 -6.210938 24.40625 -8.453125 L 28.609375 -4.578125 C 27.265625 -2.929688 25.59375 -1.675781 23.59375 -0.8125 C 21.59375 0.0507812 19.367188 0.484375 16.921875 0.484375 Z M 16.921875 0.484375 "/></g></g></g><g fill="#f9f2e3" fill-opacity="1"><g transform="translate(277.571429, 39.239117)"><g><path d="M 17.078125 0.484375 C 14.140625 0.484375 11.488281 -0.144531 9.125 -1.40625 C 6.757812 -2.675781 4.910156 -4.425781 3.578125 -6.65625 C 2.242188 -8.882812 1.578125 -11.382812 1.578125 -14.15625 C 1.578125 -16.9375 2.242188 -19.441406 3.578125 -21.671875 C 4.910156 -23.898438 6.757812 -25.644531 9.125 -26.90625 C 11.488281 -28.175781 14.140625 -28.8125 17.078125 -28.8125 C 20.015625 -28.8125 22.65625 -28.175781 25 -26.90625 C 27.351562 -25.644531 29.203125 -23.898438 30.546875 -21.671875 C 31.898438 -19.441406 32.578125 -16.9375 32.578125 -14.15625 C 32.578125 -11.382812 31.898438 -8.882812 30.546875 -6.65625 C 29.203125 -4.425781 27.351562 -2.675781 25 -1.40625 C 22.65625 -0.144531 20.015625 0.484375 17.078125 0.484375 Z M 17.078125 -5.09375 C 18.753906 -5.09375 20.265625 -5.476562 21.609375 -6.25 C 22.960938 -7.019531 24.019531 -8.09375 24.78125 -9.46875 C 25.550781 -10.84375 25.9375 -12.40625 25.9375 -14.15625 C 25.9375 -15.914062 25.550781 -17.484375 24.78125 -18.859375 C 24.019531 -20.234375 22.960938 -21.304688 21.609375 -22.078125 C 20.265625 -22.847656 18.753906 -23.234375 17.078125 -23.234375 C 15.398438 -23.234375 13.882812 -22.847656 12.53125 -22.078125 C 11.1875 -21.304688 10.128906 -20.234375 9.359375 -18.859375 C 8.597656 -17.484375 8.21875 -15.914062 8.21875 -14.15625 C 8.21875 -12.40625 8.597656 -10.84375 9.359375 -9.46875 C 10.128906 -8.09375 11.1875 -7.019531 12.53125 -6.25 C 13.882812 -5.476562 15.398438 -5.09375 17.078125 -5.09375 Z M 17.078125 -5.09375 "/></g></g></g><g fill="#f9f2e3" fill-opacity="1"><g transform="translate(312.534831, 39.239117)"><g><path d="M 29.140625 0 L 29.09375 -17 L 20.765625 -3 L 17.8125 -3 L 9.515625 -16.625 L 9.515625 0 L 3.359375 0 L 3.359375 -28.328125 L 8.78125 -28.328125 L 19.390625 -10.71875 L 29.828125 -28.328125 L 35.203125 -28.328125 L 35.28125 0 Z M 29.140625 0 "/></g></g></g><g fill="#f9f2e3" fill-opacity="1"><g transform="translate(351.990086, 39.239117)"><g><path d="M 29.140625 0 L 29.09375 -17 L 20.765625 -3 L 17.8125 -3 L 9.515625 -16.625 L 9.515625 0 L 3.359375 0 L 3.359375 -28.328125 L 8.78125 -28.328125 L 19.390625 -10.71875 L 29.828125 -28.328125 L 35.203125 -28.328125 L 35.28125 0 Z M 29.140625 0 "/></g></g></g><g fill="#f9f2e3" fill-opacity="1"><g transform="translate(391.445341, 39.239117)"><g><path d="M 15.9375 0.484375 C 11.894531 0.484375 8.742188 -0.632812 6.484375 -2.875 C 4.234375 -5.113281 3.109375 -8.3125 3.109375 -12.46875 L 3.109375 -28.328125 L 9.671875 -28.328125 L 9.671875 -12.703125 C 9.671875 -7.628906 11.773438 -5.09375 15.984375 -5.09375 C 18.035156 -5.09375 19.597656 -5.707031 20.671875 -6.9375 C 21.753906 -8.164062 22.296875 -10.085938 22.296875 -12.703125 L 22.296875 -28.328125 L 28.765625 -28.328125 L 28.765625 -12.46875 C 28.765625 -8.3125 27.640625 -5.113281 25.390625 -2.875 C 23.140625 -0.632812 19.988281 0.484375 15.9375 0.484375 Z M 15.9375 0.484375 "/></g></g></g><g fill="#f9f2e3" fill-opacity="1"><g transform="translate(424.142606, 39.239117)"><g><path d="M 29.34375 -28.328125 L 29.34375 0 L 23.953125 0 L 9.828125 -17.203125 L 9.828125 0 L 3.359375 0 L 3.359375 -28.328125 L 8.78125 -28.328125 L 22.859375 -11.125 L 22.859375 -28.328125 Z M 29.34375 -28.328125 "/></g></g></g><g fill="#f9f2e3" fill-opacity="1"><g transform="translate(457.649205, 39.239117)"><g><path d="M 3.359375 -28.328125 L 9.921875 -28.328125 L 9.921875 0 L 3.359375 0 Z M 3.359375 -28.328125 "/></g></g></g><g fill="#f9f2e3" fill-opacity="1"><g transform="translate(471.731678, 39.239117)"><g><path d="M 9.234375 -22.984375 L 0.15625 -22.984375 L 0.15625 -28.328125 L 24.84375 -28.328125 L 24.84375 -22.984375 L 15.78125 -22.984375 L 15.78125 0 L 9.234375 0 Z M 9.234375 -22.984375 "/></g></g></g><g fill="#f9f2e3" fill-opacity="1"><g transform="translate(497.023505, 39.239117)"><g><path d="M 16.953125 -10.03125 L 16.953125 0 L 10.40625 0 L 10.40625 -10.109375 L -0.5625 -28.328125 L 6.390625 -28.328125 L 13.96875 -15.75 L 21.53125 -28.328125 L 27.96875 -28.328125 Z M 16.953125 -10.03125 "/></g></g></g><g fill="#f9f2e3" fill-opacity="1"><g transform="translate(523.650757, 39.239117)"><g><path d="M 5.296875 0.328125 C 4.191406 0.328125 3.257812 -0.046875 2.5 -0.796875 C 1.75 -1.554688 1.375 -2.503906 1.375 -3.640625 C 1.375 -4.796875 1.75 -5.734375 2.5 -6.453125 C 3.257812 -7.171875 4.191406 -7.53125 5.296875 -7.53125 C 6.398438 -7.53125 7.332031 -7.171875 8.09375 -6.453125 C 8.851562 -5.734375 9.234375 -4.796875 9.234375 -3.640625 C 9.234375 -2.503906 8.851562 -1.554688 8.09375 -0.796875 C 7.332031 -0.046875 6.398438 0.328125 5.296875 0.328125 Z M 5.296875 0.328125 "/></g></g></g><g fill="#f9f2e3" fill-opacity="1"><g transform="translate(0.754529, 95.603762)"><g><path d="M 24.15625 -14.734375 C 25.78125 -14.222656 27.050781 -13.363281 27.96875 -12.15625 C 28.882812 -10.957031 29.34375 -9.484375 29.34375 -7.734375 C 29.34375 -5.242188 28.375 -3.332031 26.4375 -2 C 24.507812 -0.664062 21.703125 0 18.015625 0 L 3.359375 0 L 3.359375 -28.328125 L 17.203125 -28.328125 C 20.648438 -28.328125 23.296875 -27.664062 25.140625 -26.34375 C 26.992188 -25.019531 27.921875 -23.226562 27.921875 -20.96875 C 27.921875 -19.59375 27.585938 -18.363281 26.921875 -17.28125 C 26.265625 -16.195312 25.34375 -15.347656 24.15625 -14.734375 Z M 9.875 -23.390625 L 9.875 -16.71875 L 16.390625 -16.71875 C 18.003906 -16.71875 19.226562 -17 20.0625 -17.5625 C 20.90625 -18.125 21.328125 -18.960938 21.328125 -20.078125 C 21.328125 -21.179688 20.90625 -22.007812 20.0625 -22.5625 C 19.226562 -23.113281 18.003906 -23.390625 16.390625 -23.390625 Z M 17.515625 -4.9375 C 19.242188 -4.9375 20.546875 -5.21875 21.421875 -5.78125 C 22.304688 -6.351562 22.75 -7.234375 22.75 -8.421875 C 22.75 -10.765625 21.003906 -11.9375 17.515625 -11.9375 L 9.875 -11.9375 L 9.875 -4.9375 Z M 17.515625 -4.9375 "/></g></g></g><g fill="#f9f2e3" fill-opacity="1"><g transform="translate(32.521058, 95.603762)"><g><path d="M 22.015625 -6.0625 L 8.859375 -6.0625 L 6.359375 0 L -0.359375 0 L 12.265625 -28.328125 L 18.734375 -28.328125 L 31.40625 0 L 24.53125 0 Z M 19.953125 -11.046875 L 15.453125 -21.890625 L 10.96875 -11.046875 Z M 19.953125 -11.046875 "/></g></g></g><g fill="#f9f2e3" fill-opacity="1"><g transform="translate(63.923386, 95.603762)"><g><path d="M 16.921875 0.484375 C 14.023438 0.484375 11.410156 -0.140625 9.078125 -1.390625 C 6.742188 -2.648438 4.910156 -4.390625 3.578125 -6.609375 C 2.242188 -8.835938 1.578125 -11.351562 1.578125 -14.15625 C 1.578125 -16.96875 2.242188 -19.484375 3.578125 -21.703125 C 4.910156 -23.929688 6.742188 -25.671875 9.078125 -26.921875 C 11.410156 -28.179688 14.035156 -28.8125 16.953125 -28.8125 C 19.410156 -28.8125 21.628906 -28.378906 23.609375 -27.515625 C 25.597656 -26.648438 27.265625 -25.410156 28.609375 -23.796875 L 24.40625 -19.90625 C 22.488281 -22.125 20.113281 -23.234375 17.28125 -23.234375 C 15.53125 -23.234375 13.960938 -22.847656 12.578125 -22.078125 C 11.203125 -21.304688 10.128906 -20.234375 9.359375 -18.859375 C 8.597656 -17.484375 8.21875 -15.914062 8.21875 -14.15625 C 8.21875 -12.40625 8.597656 -10.84375 9.359375 -9.46875 C 10.128906 -8.09375 11.203125 -7.019531 12.578125 -6.25 C 13.960938 -5.476562 15.53125 -5.09375 17.28125 -5.09375 C 20.113281 -5.09375 22.488281 -6.210938 24.40625 -8.453125 L 28.609375 -4.578125 C 27.265625 -2.929688 25.59375 -1.675781 23.59375 -0.8125 C 21.59375 0.0507812 19.367188 0.484375 16.921875 0.484375 Z M 16.921875 0.484375 "/></g></g></g><g fill="#f9f2e3" fill-opacity="1"><g transform="translate(94.394969, 95.603762)"><g><path d="M 13.671875 -11.125 L 9.875 -7.15625 L 9.875 0 L 3.359375 0 L 3.359375 -28.328125 L 9.875 -28.328125 L 9.875 -15.09375 L 22.421875 -28.328125 L 29.703125 -28.328125 L 17.96875 -15.703125 L 30.390625 0 L 22.75 0 Z M 13.671875 -11.125 "/></g></g></g><g fill="#f9f2e3" fill-opacity="1"><g transform="translate(125.14983, 95.603762)"><g><path d="M 25.296875 -5.265625 L 25.296875 0 L 3.359375 0 L 3.359375 -28.328125 L 24.765625 -28.328125 L 24.765625 -23.0625 L 9.875 -23.0625 L 9.875 -16.921875 L 23.03125 -16.921875 L 23.03125 -11.8125 L 9.875 -11.8125 L 9.875 -5.265625 Z M 25.296875 -5.265625 "/></g></g></g><g fill="#f9f2e3" fill-opacity="1"><g transform="translate(153.112463, 95.603762)"><g><path d="M 3.359375 -28.328125 L 16.234375 -28.328125 C 19.304688 -28.328125 22.019531 -27.738281 24.375 -26.5625 C 26.738281 -25.394531 28.570312 -23.742188 29.875 -21.609375 C 31.1875 -19.472656 31.84375 -16.988281 31.84375 -14.15625 C 31.84375 -11.332031 31.1875 -8.851562 29.875 -6.71875 C 28.570312 -4.582031 26.738281 -2.925781 24.375 -1.75 C 22.019531 -0.582031 19.304688 0 16.234375 0 L 3.359375 0 Z M 15.90625 -5.375 C 18.738281 -5.375 21 -6.160156 22.6875 -7.734375 C 24.375 -9.316406 25.21875 -11.457031 25.21875 -14.15625 C 25.21875 -16.851562 24.375 -18.992188 22.6875 -20.578125 C 21 -22.160156 18.738281 -22.953125 15.90625 -22.953125 L 9.921875 -22.953125 L 9.921875 -5.375 Z M 15.90625 -5.375 "/></g></g></g><g fill="#f9f2e3" fill-opacity="1"><g transform="translate(187.347475, 95.603762)"><g/></g></g><g fill="#f9f2e3" fill-opacity="1"><g transform="translate(199.608943, 95.603762)"><g><path d="M 24.15625 -14.734375 C 25.78125 -14.222656 27.050781 -13.363281 27.96875 -12.15625 C 28.882812 -10.957031 29.34375 -9.484375 29.34375 -7.734375 C 29.34375 -5.242188 28.375 -3.332031 26.4375 -2 C 24.507812 -0.664062 21.703125 0 18.015625 0 L 3.359375 0 L 3.359375 -28.328125 L 17.203125 -28.328125 C 20.648438 -28.328125 23.296875 -27.664062 25.140625 -26.34375 C 26.992188 -25.019531 27.921875 -23.226562 27.921875 -20.96875 C 27.921875 -19.59375 27.585938 -18.363281 26.921875 -17.28125 C 26.265625 -16.195312 25.34375 -15.347656 24.15625 -14.734375 Z M 9.875 -23.390625 L 9.875 -16.71875 L 16.390625 -16.71875 C 18.003906 -16.71875 19.226562 -17 20.0625 -17.5625 C 20.90625 -18.125 21.328125 -18.960938 21.328125 -20.078125 C 21.328125 -21.179688 20.90625 -22.007812 20.0625 -22.5625 C 19.226562 -23.113281 18.003906 -23.390625 16.390625 -23.390625 Z M 17.515625 -4.9375 C 19.242188 -4.9375 20.546875 -5.21875 21.421875 -5.78125 C 22.304688 -6.351562 22.75 -7.234375 22.75 -8.421875 C 22.75 -10.765625 21.003906 -11.9375 17.515625 -11.9375 L 9.875 -11.9375 L 9.875 -4.9375 Z M 17.515625 -4.9375 "/></g></g></g><g fill="#f9f2e3" fill-opacity="1"><g transform="translate(230.768471, 95.603762)"><g><path d="M 16.953125 -10.03125 L 16.953125 0 L 10.40625 0 L 10.40625 -10.109375 L -0.5625 -28.328125 L 6.390625 -28.328125 L 13.96875 -15.75 L 21.53125 -28.328125 L 27.96875 -28.328125 Z M 16.953125 -10.03125 "/></g></g></g><g fill="#f9f2e3" fill-opacity="1"><g transform="translate(258.933438, 95.603762)"><g/></g></g><g fill="#f9f2e3" fill-opacity="1"><g transform="translate(271.194929, 95.603762)"><g><path d="M 25.296875 -5.265625 L 25.296875 0 L 3.359375 0 L 3.359375 -28.328125 L 24.765625 -28.328125 L 24.765625 -23.0625 L 9.875 -23.0625 L 9.875 -16.921875 L 23.03125 -16.921875 L 23.03125 -11.8125 L 9.875 -11.8125 L 9.875 -5.265625 Z M 25.296875 -5.265625 "/></g></g></g><g fill="#f9f2e3" fill-opacity="1"><g transform="translate(298.874272, 95.603762)"><g><path d="M 21.203125 0 L 14.359375 -9.828125 L 7.65625 0 L 0.125 0 L 10.609375 -14.40625 L 0.640625 -28.328125 L 8.09375 -28.328125 L 14.609375 -19.140625 L 21 -28.328125 L 28.078125 -28.328125 L 18.203125 -14.65625 L 28.765625 0 Z M 21.203125 0 "/></g></g></g><g fill="#f9f2e3" fill-opacity="1"><g transform="translate(327.686729, 95.603762)"><g><path d="M 15.625 -28.328125 C 18.132812 -28.328125 20.3125 -27.90625 22.15625 -27.0625 C 24 -26.226562 25.421875 -25.039062 26.421875 -23.5 C 27.421875 -21.96875 27.921875 -20.148438 27.921875 -18.046875 C 27.921875 -15.972656 27.421875 -14.160156 26.421875 -12.609375 C 25.421875 -11.054688 24 -9.867188 22.15625 -9.046875 C 20.3125 -8.222656 18.132812 -7.8125 15.625 -7.8125 L 9.921875 -7.8125 L 9.921875 0 L 3.359375 0 L 3.359375 -28.328125 Z M 15.25 -13.15625 C 17.21875 -13.15625 18.710938 -13.578125 19.734375 -14.421875 C 20.765625 -15.273438 21.28125 -16.484375 21.28125 -18.046875 C 21.28125 -19.640625 20.765625 -20.859375 19.734375 -21.703125 C 18.710938 -22.554688 17.21875 -22.984375 15.25 -22.984375 L 9.921875 -22.984375 L 9.921875 -13.15625 Z M 15.25 -13.15625 "/></g></g></g><g fill="#f9f2e3" fill-opacity="1"><g transform="translate(357.713188, 95.603762)"><g><path d="M 25.296875 -5.265625 L 25.296875 0 L 3.359375 0 L 3.359375 -28.328125 L 24.765625 -28.328125 L 24.765625 -23.0625 L 9.875 -23.0625 L 9.875 -16.921875 L 23.03125 -16.921875 L 23.03125 -11.8125 L 9.875 -11.8125 L 9.875 -5.265625 Z M 25.296875 -5.265625 "/></g></g></g><g fill="#f9f2e3" fill-opacity="1"><g transform="translate(385.675821, 95.603762)"><g><path d="M 21.40625 0 L 15.9375 -7.890625 L 9.921875 -7.890625 L 9.921875 0 L 3.359375 0 L 3.359375 -28.328125 L 15.625 -28.328125 C 18.132812 -28.328125 20.3125 -27.90625 22.15625 -27.0625 C 24 -26.226562 25.421875 -25.039062 26.421875 -23.5 C 27.421875 -21.96875 27.921875 -20.148438 27.921875 -18.046875 C 27.921875 -15.941406 27.414062 -14.125 26.40625 -12.59375 C 25.394531 -11.070312 23.957031 -9.910156 22.09375 -9.109375 L 28.453125 0 Z M 21.28125 -18.046875 C 21.28125 -19.640625 20.765625 -20.859375 19.734375 -21.703125 C 18.710938 -22.554688 17.21875 -22.984375 15.25 -22.984375 L 9.921875 -22.984375 L 9.921875 -13.109375 L 15.25 -13.109375 C 17.21875 -13.109375 18.710938 -13.539062 19.734375 -14.40625 C 20.765625 -15.269531 21.28125 -16.484375 21.28125 -18.046875 Z M 21.28125 -18.046875 "/></g></g></g><g fill="#f9f2e3" fill-opacity="1"><g transform="translate(416.228326, 95.603762)"><g><path d="M 3.359375 -28.328125 L 9.921875 -28.328125 L 9.921875 0 L 3.359375 0 Z M 3.359375 -28.328125 "/></g></g></g><g fill="#f9f2e3" fill-opacity="1"><g transform="translate(430.310798, 95.603762)"><g><path d="M 25.296875 -5.265625 L 25.296875 0 L 3.359375 0 L 3.359375 -28.328125 L 24.765625 -28.328125 L 24.765625 -23.0625 L 9.875 -23.0625 L 9.875 -16.921875 L 23.03125 -16.921875 L 23.03125 -11.8125 L 9.875 -11.8125 L 9.875 -5.265625 Z M 25.296875 -5.265625 "/></g></g></g><g fill="#f9f2e3" fill-opacity="1"><g transform="translate(458.273431, 95.603762)"><g><path d="M 29.34375 -28.328125 L 29.34375 0 L 23.953125 0 L 9.828125 -17.203125 L 9.828125 0 L 3.359375 0 L 3.359375 -28.328125 L 8.78125 -28.328125 L 22.859375 -11.125 L 22.859375 -28.328125 Z M 29.34375 -28.328125 "/></g></g></g><g fill="#f9f2e3" fill-opacity="1"><g transform="translate(491.78003, 95.603762)"><g><path d="M 16.921875 0.484375 C 14.023438 0.484375 11.410156 -0.140625 9.078125 -1.390625 C 6.742188 -2.648438 4.910156 -4.390625 3.578125 -6.609375 C 2.242188 -8.835938 1.578125 -11.351562 1.578125 -14.15625 C 1.578125 -16.96875 2.242188 -19.484375 3.578125 -21.703125 C 4.910156 -23.929688 6.742188 -25.671875 9.078125 -26.921875 C 11.410156 -28.179688 14.035156 -28.8125 16.953125 -28.8125 C 19.410156 -28.8125 21.628906 -28.378906 23.609375 -27.515625 C 25.597656 -26.648438 27.265625 -25.410156 28.609375 -23.796875 L 24.40625 -19.90625 C 22.488281 -22.125 20.113281 -23.234375 17.28125 -23.234375 C 15.53125 -23.234375 13.960938 -22.847656 12.578125 -22.078125 C 11.203125 -21.304688 10.128906 -20.234375 9.359375 -18.859375 C 8.597656 -17.484375 8.21875 -15.914062 8.21875 -14.15625 C 8.21875 -12.40625 8.597656 -10.84375 9.359375 -9.46875 C 10.128906 -8.09375 11.203125 -7.019531 12.578125 -6.25 C 13.960938 -5.476562 15.53125 -5.09375 17.28125 -5.09375 C 20.113281 -5.09375 22.488281 -6.210938 24.40625 -8.453125 L 28.609375 -4.578125 C 27.265625 -2.929688 25.59375 -1.675781 23.59375 -0.8125 C 21.59375 0.0507812 19.367188 0.484375 16.921875 0.484375 Z M 16.921875 0.484375 "/></g></g></g><g fill="#f9f2e3" fill-opacity="1"><g transform="translate(522.251646, 95.603762)"><g><path d="M 25.296875 -5.265625 L 25.296875 0 L 3.359375 0 L 3.359375 -28.328125 L 24.765625 -28.328125 L 24.765625 -23.0625 L 9.875 -23.0625 L 9.875 -16.921875 L 23.03125 -16.921875 L 23.03125 -11.8125 L 9.875 -11.8125 L 9.875 -5.265625 Z M 25.296875 -5.265625 "/></g></g></g><g fill="#f9f2e3" fill-opacity="1"><g transform="translate(550.618946, 95.603762)"><g><path d="M 5.296875 0.328125 C 4.191406 0.328125 3.257812 -0.046875 2.5 -0.796875 C 1.75 -1.554688 1.375 -2.503906 1.375 -3.640625 C 1.375 -4.796875 1.75 -5.734375 2.5 -6.453125 C 3.257812 -7.171875 4.191406 -7.53125 5.296875 -7.53125 C 6.398438 -7.53125 7.332031 -7.171875 8.09375 -6.453125 C 8.851562 -5.734375 9.234375 -4.796875 9.234375 -3.640625 C 9.234375 -2.503906 8.851562 -1.554688 8.09375 -0.796875 C 7.332031 -0.046875 6.398438 0.328125 5.296875 0.328125 Z M 5.296875 0.328125 "/></g></g></g></g></g></svg>